<?xml version="1.0" encoding="utf-8"?>
<!-- Generator: Adobe Illustrator 21.0.2, SVG Export Plug-In . SVG Version: 6.00 Build 0)  -->
<svg version="1.1" id="Layer_1" xmlns="http://www.w3.org/2000/svg" xmlns:xlink="http://www.w3.org/1999/xlink" x="0px" y="0px"
	 viewBox="0 0 822.2 596.3" style="enable-background:new 0 0 822.2 596.3;" xml:space="preserve">
<style type="text/css">
	.st0{fill:url(#XMLID_2_);}
	.st1{fill-rule:evenodd;clip-rule:evenodd;fill:url(#XMLID_3_);}
	.st2{fill-rule:evenodd;clip-rule:evenodd;fill:url(#XMLID_7_);}
	.st3{fill-rule:evenodd;clip-rule:evenodd;fill:url(#XMLID_8_);}
	.st4{fill-rule:evenodd;clip-rule:evenodd;fill:url(#XMLID_9_);}
	.st5{fill-rule:evenodd;clip-rule:evenodd;fill:url(#XMLID_12_);}
	.st6{fill-rule:evenodd;clip-rule:evenodd;fill:url(#XMLID_13_);}
	.st7{fill-rule:evenodd;clip-rule:evenodd;fill:url(#XMLID_14_);}
	.st8{fill-rule:evenodd;clip-rule:evenodd;fill:url(#XMLID_17_);}
	.st9{fill:url(#XMLID_18_);}
	.st10{fill:url(#XMLID_19_);}
	.st11{fill:url(#XMLID_22_);}
	.st12{fill-rule:evenodd;clip-rule:evenodd;fill:url(#XMLID_23_);}
	.st13{fill-rule:evenodd;clip-rule:evenodd;fill:url(#XMLID_24_);}
	.st14{fill-rule:evenodd;clip-rule:evenodd;fill:url(#XMLID_25_);}
	.st15{fill-rule:evenodd;clip-rule:evenodd;fill:url(#XMLID_26_);}
	.st16{fill-rule:evenodd;clip-rule:evenodd;fill:url(#XMLID_27_);}
	.st17{fill-rule:evenodd;clip-rule:evenodd;fill:url(#XMLID_28_);}
	.st18{fill-rule:evenodd;clip-rule:evenodd;fill:url(#XMLID_29_);}
	.st19{fill-rule:evenodd;clip-rule:evenodd;fill:url(#XMLID_30_);}
	.st20{fill-rule:evenodd;clip-rule:evenodd;fill:url(#XMLID_31_);}
	.st21{fill-rule:evenodd;clip-rule:evenodd;fill:url(#XMLID_32_);}
	.st22{fill-rule:evenodd;clip-rule:evenodd;fill:url(#XMLID_33_);}
	.st23{fill-rule:evenodd;clip-rule:evenodd;fill:url(#XMLID_34_);}
	.st24{fill-rule:evenodd;clip-rule:evenodd;fill:url(#XMLID_35_);}
	.st25{fill-rule:evenodd;clip-rule:evenodd;fill:url(#XMLID_36_);}
	.st26{fill-rule:evenodd;clip-rule:evenodd;fill:#EEEEEE;}
	.st27{fill:#231914;}
	.st28{fill-rule:evenodd;clip-rule:evenodd;fill:#603913;}
	.st29{fill-rule:evenodd;clip-rule:evenodd;fill:url(#XMLID_37_);}
	.st30{filter:url(#Adobe_OpacityMaskFilter);}
	.st31{filter:url(#Adobe_OpacityMaskFilter_1_);}
	.st32{mask:url(#XMLID_38_);fill:url(#XMLID_39_);}
	.st33{fill:url(#XMLID_40_);}
	.st34{filter:url(#Adobe_OpacityMaskFilter_2_);}
	.st35{filter:url(#Adobe_OpacityMaskFilter_3_);}
	.st36{mask:url(#XMLID_41_);fill:url(#XMLID_42_);}
	.st37{fill:url(#XMLID_43_);}
	.st38{filter:url(#Adobe_OpacityMaskFilter_4_);}
	.st39{filter:url(#Adobe_OpacityMaskFilter_5_);}
	.st40{mask:url(#XMLID_44_);fill:url(#XMLID_45_);}
	.st41{fill:url(#XMLID_46_);}
	.st42{filter:url(#Adobe_OpacityMaskFilter_6_);}
	.st43{filter:url(#Adobe_OpacityMaskFilter_7_);}
	.st44{mask:url(#XMLID_47_);fill:url(#XMLID_48_);}
	.st45{fill:url(#XMLID_49_);}
</style>
<g id="XMLID_274_">
	<g id="XMLID_222_">
		<g id="XMLID_219_">
			<g id="XMLID_5_">
				<linearGradient id="XMLID_2_" gradientUnits="userSpaceOnUse" x1="375.3183" y1="261.3673" x2="196.8523" y2="644.9362">
					<stop  offset="0" style="stop-color:#FFFFFF"/>
					<stop  offset="1" style="stop-color:#C5A99A"/>
				</linearGradient>
				<path id="XMLID_234_" class="st0" d="M478.2,33.3c0,0.5,0,1.1,0,1.6c0-19.2-15.6-34.9-34.8-34.9c-0.8,0-1.5,0-2.3,0.1
					c-0.2,0-0.3,0-0.5,0c-0.7,0.1-1.4,0.1-2.1,0.2c0,0-0.1,0-0.1,0c-4.5,0.6-8.6,2.1-12.4,4.3c0,0,0,0,0,0c-2.4,1.4-4.6,3-6.5,4.9
					c0,0-0.1,0.1-0.1,0.1c-1.3,1.2-2.5,2.6-3.6,4c0,0,0,0.1-0.1,0.1c-0.5,0.7-1,1.4-1.5,2.1c-0.1,0.1-0.1,0.2-0.2,0.3
					c-0.5,0.7-0.9,1.5-1.3,2.2c0,0,0,0.1,0,0.1c-0.4,0.7-0.8,1.5-1.1,2.3c0,0.1-0.1,0.2-0.1,0.3c-0.3,0.8-0.6,1.5-0.9,2.3
					c-0.1,0.1-0.1,0.3-0.1,0.4c-0.3,0.8-0.5,1.6-0.7,2.4c0,0,0,0.1,0,0.1c-0.2,0.8-0.4,1.6-0.5,2.4c0,0.2-0.1,0.3-0.1,0.5
					c-0.1,0.8-0.2,1.7-0.3,2.5c0,0.2,0,0.3,0,0.5c-0.1,0.9-0.1,1.8-0.1,2.6c0-0.1,0-0.1,0-0.2c-60,8.6-103.8,35.6-103.8,67.7
					c0,0.2,0,0.5,0,0.7c0.8,38.6,65.1,69.8,144.4,69.8c78.1,0,141.7-30.3,144.3-68.1c0.1-0.8,0.1-1.6,0.1-2.4
					C593.7,68.3,544.1,39.8,478.2,33.3z"/>
				<linearGradient id="XMLID_3_" gradientUnits="userSpaceOnUse" x1="607.1548" y1="372.2709" x2="381.2953" y2="598.1304">
					<stop  offset="1.595870e-02" style="stop-color:#FFFFFF"/>
					<stop  offset="0.1444" style="stop-color:#FBF7F6"/>
					<stop  offset="0.3539" style="stop-color:#F1E3DE"/>
					<stop  offset="0.6183" style="stop-color:#DFC1B6"/>
					<stop  offset="0.9246" style="stop-color:#C89380"/>
					<stop  offset="0.9948" style="stop-color:#C28772"/>
				</linearGradient>
				<path id="XMLID_245_" class="st1" d="M581.9,514.6c-39.6,15.9-84.5,24.9-132.2,24.9c-51.4,0-99.7-10.5-141.5-28.8
					c-11.7,8.1-18.3,17.4-18.3,27.3c0,32.2,70.4,58.3,157.3,58.3c46.7,0,88.6-7.5,117.4-19.5C575.6,557.5,582.7,536.6,581.9,514.6z"
					/>
				<linearGradient id="XMLID_7_" gradientUnits="userSpaceOnUse" x1="605.7271" y1="518.851" x2="420.6527" y2="677.4863">
					<stop  offset="0" style="stop-color:#FFFFFF"/>
					<stop  offset="1" style="stop-color:#C5A99A"/>
				</linearGradient>
				<path id="XMLID_246_" class="st2" d="M604.2,535.6c0-9.3-5.9-18.2-16.5-26c-2,0.9-4.1,1.7-6.2,2.5c0.8,22-6.2,42.9-17.2,62.2
					C589.1,564,604.2,550.5,604.2,535.6z"/>
				<linearGradient id="XMLID_8_" gradientUnits="userSpaceOnUse" x1="786.903" y1="125.8801" x2="-106.6142" y2="623.0787">
					<stop  offset="0" style="stop-color:#FFFFFF"/>
					<stop  offset="1" style="stop-color:#C4C6C8"/>
				</linearGradient>
				<path id="XMLID_272_" class="st3" d="M308.8,118.8c-88,38.2-147.5,111.2-147.5,195c0,123.3,128.9,223.3,288,223.3
					c159.1,0,288-100,288-223.3c0-83.8-59.5-156.8-147.5-195c-15.2,31-72.3,54.1-140.5,54.1C381.1,172.9,324,149.8,308.8,118.8
					L308.8,118.8z"/>
				<linearGradient id="XMLID_9_" gradientUnits="userSpaceOnUse" x1="216.7292" y1="205.2692" x2="647.2332" y2="-151.3825">
					<stop  offset="0" style="stop-color:#FFFFFF"/>
					<stop  offset="1" style="stop-color:#C5A99A"/>
				</linearGradient>
				<path id="XMLID_221_" class="st4" d="M308.8,118.8c-18.3,7.9-35.4,17.4-51,28.2c7.9,5.6,16.1,10.8,24.5,15.5
					c13.9-9.1,28.5-17,43.5-23.4C318.2,132.8,312.4,126,308.8,118.8z"/>
				<linearGradient id="XMLID_12_" gradientUnits="userSpaceOnUse" x1="169.4784" y1="366.5893" x2="169.4264" y2="366.6183">
					<stop  offset="0" style="stop-color:#FFFFFF"/>
					<stop  offset="1" style="stop-color:#C4C6C8"/>
				</linearGradient>
				<path id="XMLID_224_" class="st5" d="M169.5,366.6C169.5,366.6,169.5,366.6,169.5,366.6C169.5,366.6,169.4,366.6,169.5,366.6
					C169.4,366.6,169.5,366.6,169.5,366.6z"/>
				<linearGradient id="XMLID_13_" gradientUnits="userSpaceOnUse" x1="341.6489" y1="185.5368" x2="19.0046" y2="365.0725">
					<stop  offset="0" style="stop-color:#FFFFFF"/>
					<stop  offset="1" style="stop-color:#C8C5A8"/>
				</linearGradient>
				<path id="XMLID_229_" class="st6" d="M282.4,162.4c-8.4-4.7-16.6-9.9-24.5-15.5c-59.2,40.9-96.6,100.5-96.6,166.8
					c0,18.2,2.8,35.9,8.1,52.8c0,0,0,0,0,0C160.8,284.9,212.4,208.2,282.4,162.4z"/>
				<linearGradient id="XMLID_14_" gradientUnits="userSpaceOnUse" x1="180.1712" y1="286.2206" x2="-150.2795" y2="501.1558">
					<stop  offset="0" style="stop-color:#FFFFFF"/>
					<stop  offset="1" style="stop-color:#C5A99A"/>
				</linearGradient>
				<path id="XMLID_240_" class="st7" d="M314.4,177.5c-11.1-4.2-21.7-9.3-31.9-15c-40,26.2-74,62.5-94.2,104
					c23,12.8,47.6,20.6,72.9,24.5c17.1-38.9,40.8-75.2,69.5-107.4C325.2,181.6,319.7,179.6,314.4,177.5z"/>
				<linearGradient id="XMLID_17_" gradientUnits="userSpaceOnUse" x1="604.067" y1="291.3088" x2="615.8938" y2="624.1547">
					<stop  offset="0" style="stop-color:#FFFFFF"/>
					<stop  offset="1" style="stop-color:#C5A99A"/>
				</linearGradient>
				<path id="XMLID_237_" class="st8" d="M672.7,211.2c-24.5-33-57.5-59.9-95.4-76.1c-1,0.9-2,1.9-3.1,2.8
					c-10.6,16.7-25.4,30.1-43.6,38.4c-0.6,0.3-1.3,0.5-1.9,0.8c25.9,27.2,54,52.1,77.2,82.1C630.8,247.2,653.6,231.4,672.7,211.2z"
					/>
				<linearGradient id="XMLID_18_" gradientUnits="userSpaceOnUse" x1="438.4365" y1="93.0523" x2="438.4365" y2="278.7365">
					<stop  offset="0" style="stop-color:#FFFFFF"/>
					<stop  offset="1" style="stop-color:#C5A99A"/>
				</linearGradient>
				<path id="XMLID_225_" class="st9" d="M565.3,146.2c1-1.1,2-2.4,2.9-3.9c-26,18.4-69.6,30.5-119,30.5c-1.2,0-2.4,0-3.7,0
					c-50.7-0.6-94.9-14-119.7-33.8c-5.9,2.5-11.6,5.2-17.3,8.2C382,201.7,491,203.2,565.3,146.2z"/>
				<linearGradient id="XMLID_19_" gradientUnits="userSpaceOnUse" x1="454.7959" y1="23.4476" x2="454.7959" y2="1136.5026">
					<stop  offset="0" style="stop-color:#FFFFFF"/>
					<stop  offset="1" style="stop-color:#C5A99A"/>
				</linearGradient>
				<path id="XMLID_275_" class="st10" d="M705.8,415.3c20.1-30.5,31.4-65,31.4-101.6c0-83.8-59.5-156.8-147.5-195
					c-2.8,5.7-7,11.2-12.5,16.3c37.9,16.2,70.9,43.1,95.4,76.1c-19,20.3-41.9,36.1-66.9,48c0,0,0,0,0,0
					c-23.1-30-51.3-54.9-77.2-82.1c0.6-0.3,1.3-0.5,1.9-0.8c18.2-8.3,33.1-21.8,43.6-38.4c-1.8,1.5-3.8,3-5.9,4.5
					c-0.9,1.5-1.9,2.8-2.9,3.9c-74.3,57-183.4,55.5-256.7,1c-8.9,4.6-17.7,9.7-26.2,15.2c10.2,5.8,20.9,10.8,31.9,15
					c5.4,2.2,10.8,4.1,16.3,6c-28.7,32.2-52.5,68.5-69.5,107.4c-25.3-3.9-49.8-11.7-72.9-24.5c-7.2,14.8-12.6,30.2-15.9,46
					c23.5,10.5,46.7,21.2,70.5,30.5c30.8,12.1,62.5,21.8,96.8,25.7c43.2,3.6,85.3,9.6,129.7,1.2c60.4-9.6,114.3-29.4,167.4-58.8
					c7-3.9,14.1-8,21.1-12.2c14.8-9,28-19.5,40.2-31c0.6-4.1,0.9-8.2,0.8-12.3c14.7,32.7,21.9,68.6,19,104.7
					C716.4,379.1,712.2,397.5,705.8,415.3z"/>
				<linearGradient id="XMLID_22_" gradientUnits="userSpaceOnUse" x1="443.4706" y1="296.501" x2="443.4706" y2="623.5779">
					<stop  offset="1.595870e-02" style="stop-color:#FFFFFF"/>
					<stop  offset="0.1444" style="stop-color:#FBF7F6"/>
					<stop  offset="0.3539" style="stop-color:#F1E3DE"/>
					<stop  offset="0.6183" style="stop-color:#DFC1B6"/>
					<stop  offset="0.9246" style="stop-color:#C89380"/>
					<stop  offset="0.9948" style="stop-color:#C28772"/>
				</linearGradient>
				<path id="XMLID_220_" class="st11" d="M698.8,255.5c0,0,0,0.1,0,0.1c0.1,7.5-3.3,14.5-8.9,19.5
					c-42.4,38.1-121.7,71.8-200.2,85.9c-44.5,8-106.9,11.1-150.1,7.5c-60.7-6.9-113.4-32.1-167.3-56.2c-3.7,17.6-4.8,35.7-2.8,54.1
					c0,0,0,0.1,0,0.1C200.1,464.4,313.8,537,449.3,537c0.1,0,0.3,0,0.4,0c111.7-0.1,208.5-49.5,256.2-121.7
					c6.3-17.8,10.6-36.2,12-55.1C720.7,324.2,713.5,288.3,698.8,255.5z"/>
				<linearGradient id="XMLID_23_" gradientUnits="userSpaceOnUse" x1="264.4017" y1="193.8001" x2="264.4017" y2="549.529">
					<stop  offset="1.595870e-02" style="stop-color:#FFFFFF"/>
					<stop  offset="0.1444" style="stop-color:#FBF7F6"/>
					<stop  offset="0.3539" style="stop-color:#F1E3DE"/>
					<stop  offset="0.6183" style="stop-color:#DFC1B6"/>
					<stop  offset="0.9246" style="stop-color:#C89380"/>
					<stop  offset="0.9948" style="stop-color:#C28772"/>
				</linearGradient>
				<path id="XMLID_273_" class="st12" d="M228.5,457.1c12.1,11.2,25.7,21.5,40.4,30.7c33.2-32.4,37-70.9,25.7-112.4l0,0
					C299.1,410.9,285.9,446,228.5,457.1L228.5,457.1z"/>
				<linearGradient id="XMLID_24_" gradientUnits="userSpaceOnUse" x1="622.9721" y1="59.3434" x2="323.9779" y2="165.012">
					<stop  offset="0" style="stop-color:#FFFFFF"/>
					<stop  offset="1" style="stop-color:#C5A99A"/>
				</linearGradient>
				<path id="XMLID_223_" class="st13" d="M564.1,131.8c-76.8,36.1-169.3,36.1-243.8-7.2c-8.7-4.8-11.7-13.2-15.5-21.5
					c0.8,38.6,65.1,69.8,144.4,69.8c78.1,0,141.7-30.3,144.3-68.1C585.9,115.8,576.4,125.3,564.1,131.8z"/>
				<linearGradient id="XMLID_25_" gradientUnits="userSpaceOnUse" x1="362.0595" y1="106.2558" x2="317.9747" y2="306.6415">
					<stop  offset="0" style="stop-color:#FFFFFF"/>
					<stop  offset="1" style="stop-color:#C5A99A"/>
				</linearGradient>
				<path id="XMLID_230_" class="st14" d="M331.2,94.5c0,13.2,22.8,30.1,43.2,32.5c2.3-21,13.7-39,29.2-52.6
					c-6-3.4-9.7-11.9-6.4-19.5c2.8-5.7,7-10.1,12-13.7c-0.1-0.6-0.2-1.3-0.3-1.9C376.5,48.6,330,61,331.2,94.5z"/>
				<linearGradient id="XMLID_26_" gradientUnits="userSpaceOnUse" x1="495.3084" y1="30.6547" x2="261.2535" y2="371.9106">
					<stop  offset="0" style="stop-color:#FFFFFF"/>
					<stop  offset="1" style="stop-color:#C5A99A"/>
				</linearGradient>
				<path id="XMLID_231_" class="st15" d="M478.2,33.3c0,0.5,0,1.1,0,1.6c0,2.1-0.2,4.1-0.6,6.1c34.8,3.6,76.3,17.6,86.4,54.7
					c-7.2,0-9.6,8.4-15.6,10.8c-12,6-22.8,9.6-36,13.2c-6,1.2-10.8,0-16.8,1.2c-2.3-21.9-13.5-44.7-31.1-58.4
					c-2.1,1.6-4.4,3-6.9,4.2c-14.3,11.6-34.5,15.6-52.1,8.5c-0.7-0.2-1.4-0.5-2-0.9C388.1,88,376.7,106,374.4,127
					c-20.4-2.4-43.2-19.2-43.2-32.5C330,61,376.5,48.6,408.9,39.1c-0.2-1.4-0.3-2.8-0.3-4.2c0-0.1,0-0.1,0-0.2
					c-60,8.6-103.8,35.6-103.8,67.7c0,0.2,0,0.5,0,0.7c3.8,8.3,6.7,16.7,15.5,21.5c74.4,43.3,166.9,43.3,243.8,7.2
					c12.3-6.4,21.7-15.9,29.5-27c0.1-0.8,0.1-1.6,0.1-2.4C593.7,68.3,544.1,39.8,478.2,33.3z"/>
				<linearGradient id="XMLID_27_" gradientUnits="userSpaceOnUse" x1="503.7126" y1="124.5142" x2="463.631" y2="295.262">
					<stop  offset="0" style="stop-color:#FFFFFF"/>
					<stop  offset="1" style="stop-color:#C5A99A"/>
				</linearGradient>
				<path id="XMLID_235_" class="st16" d="M495.7,120.9c6-1.2,10.8,0,16.8-1.2c13.2-3.6,24-7.2,36-13.2c6-2.4,8.4-10.8,15.6-10.8
					C554,58.6,512.5,44.6,477.7,41c-1.5,8.7-6.3,16.4-13.1,21.6C482.2,76.2,493.4,99.1,495.7,120.9z"/>
				<linearGradient id="XMLID_28_" gradientUnits="userSpaceOnUse" x1="512.6287" y1="6.7949" x2="362.9295" y2="96.4543">
					<stop  offset="0" style="stop-color:#FFFFFF"/>
					<stop  offset="1" style="stop-color:#C5A99A"/>
				</linearGradient>
				<path id="XMLID_233_" class="st17" d="M397.2,54.8c-3.6,8.4,1.2,18,8.4,20.4c17.6,7.1,37.8,3.1,52.1-8.5
					c-4.4,2-9.2,3.1-14.3,3.1c-17.1,0-31.3-12.4-34.2-28.7C404.3,44.7,400.1,49.1,397.2,54.8z"/>
				<linearGradient id="XMLID_29_" gradientUnits="userSpaceOnUse" x1="491.4787" y1="-13.1385" x2="426.0487" y2="52.2914">
					<stop  offset="0" style="stop-color:#FFFFFF"/>
					<stop  offset="1" style="stop-color:#C5A99A"/>
				</linearGradient>
				<path id="XMLID_278_" class="st18" d="M443.5,69.8c-19.2,0-34.8-15.7-34.8-34.9S424.3,0,443.5,0c19.2,0,34.8,15.7,34.8,34.9
					S462.6,69.8,443.5,69.8L443.5,69.8z"/>
				<linearGradient id="XMLID_30_" gradientUnits="userSpaceOnUse" x1="490.8607" y1="-16.2401" x2="388.677" y2="93.9581">
					<stop  offset="0" style="stop-color:#FFFFFF"/>
					<stop  offset="1" style="stop-color:#C5A99A"/>
				</linearGradient>
				<path id="XMLID_243_" class="st19" d="M465.7,54.8c-13.8,6.9-28.7,1.7-38.3-10.4c-5.2-0.4-9.9-2.2-12.1-6.5
					c-3.1-9.3,1.8-22.2,10.9-28.6c2-3.1,4.6-5.8,7.6-7.9c-14.5,4.2-25.1,17.7-25.1,33.5c0,19.2,15.6,34.9,34.8,34.9
					c14.6,0,27.1-9.1,32.3-21.9C472.8,50.7,469.5,53,465.7,54.8z"/>
				<linearGradient id="XMLID_31_" gradientUnits="userSpaceOnUse" x1="431.3806" y1="43.0104" x2="448.0143" y2="73.0715">
					<stop  offset="0" style="stop-color:#FFFFFF"/>
					<stop  offset="1" style="stop-color:#C5A99A"/>
				</linearGradient>
				<path id="XMLID_244_" class="st20" d="M415.2,38c2.1,4.3,6.9,6,12.1,6.5c-0.4-0.5-0.9-1.1-1.3-1.7c-7.3-10.5-6.4-23.7,0.1-33.4
					C417,15.8,412.1,28.7,415.2,38z"/>
				<linearGradient id="XMLID_32_" gradientUnits="userSpaceOnUse" x1="467.9202" y1="9.0717" x2="394.2134" y2="92.7931">
					<stop  offset="0" style="stop-color:#FFFFFF"/>
					<stop  offset="1" style="stop-color:#C5A99A"/>
				</linearGradient>
				<path id="XMLID_242_" class="st21" d="M443.5,0c-3.4,0-6.6,0.5-9.7,1.4C421,10.5,416.5,29,426,42.8c9.6,13.2,25.2,19.2,39.6,12
					c3.8-1.8,7.2-4.1,10.1-6.9c1.6-4,2.5-8.4,2.5-13C478.2,15.7,462.6,0,443.5,0z"/>
				<linearGradient id="XMLID_33_" gradientUnits="userSpaceOnUse" x1="440.5699" y1="48.7383" x2="411.3521" y2="111.535">
					<stop  offset="0" style="stop-color:#FFFFFF"/>
					<stop  offset="1" style="stop-color:#C5A99A"/>
				</linearGradient>
				<path id="XMLID_211_" class="st22" d="M457.7,41c1.2-2.6,0.9-17.3-5.7-26.7c-3.3-4.8-8.8-7.7-14.6-8.8c4.8-1.2,8.3-1.7,13.3-0.3
					c5,1.4,18.4,7.3,20.5,25.8C471.8,37.2,462.9,41.4,457.7,41z"/>
				<linearGradient id="XMLID_34_" gradientUnits="userSpaceOnUse" x1="487.1672" y1="721.0957" x2="463.7341" y2="576.892">
					<stop  offset="1.595870e-02" style="stop-color:#FFFFFF"/>
					<stop  offset="0.1444" style="stop-color:#FBF7F6"/>
					<stop  offset="0.3539" style="stop-color:#F1E3DE"/>
					<stop  offset="0.6183" style="stop-color:#DFC1B6"/>
					<stop  offset="0.9246" style="stop-color:#C89380"/>
					<stop  offset="0.9948" style="stop-color:#C28772"/>
				</linearGradient>
				<path id="XMLID_281_" class="st23" d="M323.8,514.8c15,25.1,66.9,43.6,128.7,43.6c64.3,0,118-20.1,130.4-46.8
					C543,527.8,497.5,537,449.3,537C404.3,537,361.8,529,323.8,514.8L323.8,514.8z"/>
				<linearGradient id="XMLID_35_" gradientUnits="userSpaceOnUse" x1="221.1141" y1="163.0749" x2="-306.1655" y2="660.3265">
					<stop  offset="0" style="stop-color:#FFFFFF"/>
					<stop  offset="1" style="stop-color:#C5A99A"/>
				</linearGradient>
				<path id="XMLID_227_" class="st24" d="M44.2,160.6c38.4,31.3,40.8,83,54,127.5c16.8,56.5,79.2,85.4,135.7,78.2
					c25.2-2.4,40.8-28.9,33.6-52.9c-0.8-3.1-1.5-6-2.3-9c-6-8.3-11.7-14.3-15.9-17c-24.9-15.7-57-0.6-85.6-2.4
					c-51.5-5.4-48.6-123.9-97.4-150.1c-19.2-9.6-54.1-0.7-65,9.3c-2.5,2.3-1.1,6.4,2.2,6.9c1.1,0.2,2.2,0.4,3.3,0.8
					C19.9,148.9,35.7,152.9,44.2,160.6z"/>
				<linearGradient id="XMLID_36_" gradientUnits="userSpaceOnUse" x1="308.4026" y1="113.857" x2="-124.1722" y2="580.0772">
					<stop  offset="0" style="stop-color:#FFFFFF"/>
					<stop  offset="1" style="stop-color:#C5A99A"/>
				</linearGradient>
				<path id="XMLID_232_" class="st25" d="M265.2,304.4c0.8,2.9,1.5,5.9,2.3,9c7.2,24-8.4,50.5-33.6,52.9
					c-56.4,7.2-118.9-21.6-135.7-78.2c-13.2-44.5-15.6-96.2-54-127.5c-8.5-7.7-24.3-11.7-37.4-8.7c6.1,2,11.5,6.6,14.7,10.4
					C58,208.1,73.9,277.5,87.1,355.4c12.8,75.6,73.9,114.6,141.4,101.6C329,437.7,294.2,344.6,265.2,304.4z"/>
				<path id="XMLID_285_" class="st26" d="M734.6,283.2c-2.2-12.3-5.6-24.3-10.3-35.8l0,0c42.9-32.1,71-81.7,29-110.1
					c-29.4-20-60.9,13.2-77,39.1v0c0.3,0.3,0.7,0.7,1,1c-11.6-11.7-24.7-22.4-39-32.1v0c26.1-42,61.9-72.1,114.6-62
					c55.6,10.7,79.3,55.7,65.4,108.8C807.5,233.2,770.5,259.4,734.6,283.2L734.6,283.2z M678,178c0.4,0.5,0.9,0.9,1.3,1.4
					C678.9,179,678.5,178.5,678,178L678,178z M679.9,180c0.4,0.4,0.8,0.9,1.2,1.3C680.8,180.9,680.4,180.5,679.9,180L679.9,180z
					 M681.9,182c0.4,0.4,0.8,0.8,1.1,1.2C682.6,182.9,682.3,182.5,681.9,182L681.9,182z M683.7,184.1c0.4,0.4,0.7,0.8,1.1,1.2
					C684.5,184.9,684.1,184.5,683.7,184.1L683.7,184.1z M685.6,186.1c0.3,0.4,0.7,0.7,1,1.1C686.3,186.9,686,186.5,685.6,186.1
					L685.6,186.1z M687.5,188.2c0.3,0.4,0.6,0.7,0.9,1.1C688.1,188.9,687.8,188.5,687.5,188.2L687.5,188.2z M689.2,190.2
					c0.3,0.3,0.6,0.7,0.9,1C689.8,190.9,689.5,190.6,689.2,190.2L689.2,190.2z M691,192.4c0.2,0.3,0.5,0.6,0.8,0.9
					C691.5,193,691.3,192.7,691,192.4L691,192.4z M692.8,194.5c0.2,0.3,0.5,0.6,0.7,0.9C693.3,195,693,194.8,692.8,194.5
					L692.8,194.5z M694.5,196.6c0.2,0.3,0.4,0.5,0.6,0.8C694.9,197.1,694.7,196.9,694.5,196.6L694.5,196.6z M696.2,198.8
					c0.2,0.2,0.4,0.5,0.6,0.7C696.6,199.3,696.4,199,696.2,198.8L696.2,198.8z"/>
				<g id="XMLID_299_">
					<path id="XMLID_416_" class="st27" d="M271.2,264.3c-0.8,0-1.6-0.2-1.6-0.7c0-0.6,0.9-0.7,1.6-0.7c0.8,0,1.7,0.2,1.7,0.7
						C272.9,264.2,272,264.3,271.2,264.3z M270.2,263.6c0.2,0.1,0.5,0.2,1,0.2c0.5,0,0.9-0.1,1-0.2c-0.2-0.1-0.5-0.2-1-0.2
						C270.7,263.4,270.4,263.5,270.2,263.6z"/>
				</g>
				<path id="XMLID_301_" class="st26" d="M638.4,145.3l0.2,0.1L638.4,145.3L638.4,145.3z M656.1,158.4c7.2,5.7,13.9,11.7,20.2,18
					l0,0l1.4-2.1L656.1,158.4L656.1,158.4z"/>
			</g>
			
				<ellipse id="XMLID_218_" transform="matrix(0.9841 -0.1774 0.1774 0.9841 -24.6414 8.1345)" class="st28" cx="33.2" cy="141.9" rx="26.9" ry="5.9"/>
		</g>
		<linearGradient id="XMLID_37_" gradientUnits="userSpaceOnUse" x1="83.1595" y1="276.0626" x2="-9.8903" y2="402.8027">
			<stop  offset="0" style="stop-color:#FFFFFF"/>
			<stop  offset="1" style="stop-color:#C5A99A"/>
		</linearGradient>
		<path id="XMLID_247_" class="st29" d="M133.9,286.1c-11.7-9.8-16.6-25.3-20.9-40c-4.2-14.2-8.4-28.5-12.6-42.7
			c-3.3-11.3-6.7-22.7-12.4-33c-3.8-6.9-11.1-17.1-17.5-21.8c-5.7-4.1-10.9-1.6-16.5-0.3c40.6,33.5,40.7,92.5,65.9,137.2
			c12.2,21.2,34.3,28.6,57.4,29.6c-2.8-4.8-4.9-10-6.1-15.4C158,297.5,144.1,294.8,133.9,286.1z"/>
	</g>
	<g id="XMLID_236_">
		<defs>
			<filter id="Adobe_OpacityMaskFilter" filterUnits="userSpaceOnUse" x="303.9" y="103" width="290.7" height="70.8">
				<feFlood  style="flood-color:white;flood-opacity:1" result="back"/>
				<feBlend  in="SourceGraphic" in2="back" mode="normal"/>
			</filter>
		</defs>
		<mask maskUnits="userSpaceOnUse" x="303.9" y="103" width="290.7" height="70.8" id="XMLID_38_">
			<g id="XMLID_20_" class="st30">
				<defs>
					<filter id="Adobe_OpacityMaskFilter_1_" filterUnits="userSpaceOnUse" x="303.9" y="103" width="290.7" height="70.8">
						<feFlood  style="flood-color:white;flood-opacity:1" result="back"/>
						<feBlend  in="SourceGraphic" in2="back" mode="normal"/>
					</filter>
				</defs>
				<mask maskUnits="userSpaceOnUse" x="303.9" y="103" width="290.7" height="70.8" id="XMLID_38_">
					<g id="XMLID_88_" class="st31">
					</g>
				</mask>
				<linearGradient id="XMLID_39_" gradientUnits="userSpaceOnUse" x1="583.5689" y1="73.6362" x2="323.9552" y2="165.3873">
					<stop  offset="0" style="stop-color:#000000"/>
					<stop  offset="0.4845" style="stop-color:#FFFFFF"/>
					<stop  offset="0.9897" style="stop-color:#000000"/>
				</linearGradient>
				<path id="XMLID_21_" class="st32" d="M449.3,173.9c-38.5,0-74.7-7.3-102.1-20.5c-27.6-13.3-42.9-31.2-43.3-50.3l2,0
					c0.7,38,65.1,68.8,143.4,68.8c37.6,0,73.1-7,100-19.8c26.7-12.6,42-29.4,43.3-47.4l2,0.1c-1.3,18.7-17.1,36.1-44.4,49.1
					C523,166.8,487.2,173.9,449.3,173.9z"/>
			</g>
		</mask>
		<linearGradient id="XMLID_40_" gradientUnits="userSpaceOnUse" x1="583.5689" y1="73.6362" x2="323.9552" y2="165.3873">
			<stop  offset="0" style="stop-color:#FFFFFF"/>
			<stop  offset="0.4845" style="stop-color:#FFFFFF"/>
			<stop  offset="0.9897" style="stop-color:#FFFFFF"/>
		</linearGradient>
		<path id="XMLID_414_" class="st33" d="M449.3,173.9c-38.5,0-74.7-7.3-102.1-20.5c-27.6-13.3-42.9-31.2-43.3-50.3l2,0
			c0.7,38,65.1,68.8,143.4,68.8c37.6,0,73.1-7,100-19.8c26.7-12.6,42-29.4,43.3-47.4l2,0.1c-1.3,18.7-17.1,36.1-44.4,49.1
			C523,166.8,487.2,173.9,449.3,173.9z"/>
	</g>
	<g id="XMLID_228_">
		<defs>
			<filter id="Adobe_OpacityMaskFilter_2_" filterUnits="userSpaceOnUse" x="407.7" y="34.9" width="69" height="35.9">
				<feFlood  style="flood-color:white;flood-opacity:1" result="back"/>
				<feBlend  in="SourceGraphic" in2="back" mode="normal"/>
			</filter>
		</defs>
		<mask maskUnits="userSpaceOnUse" x="407.7" y="34.9" width="69" height="35.9" id="XMLID_41_">
			<g id="XMLID_15_" class="st34">
				<defs>
					<filter id="Adobe_OpacityMaskFilter_3_" filterUnits="userSpaceOnUse" x="407.7" y="34.9" width="69" height="35.9">
						<feFlood  style="flood-color:white;flood-opacity:1" result="back"/>
						<feBlend  in="SourceGraphic" in2="back" mode="normal"/>
					</filter>
				</defs>
				<mask maskUnits="userSpaceOnUse" x="407.7" y="34.9" width="69" height="35.9" id="XMLID_41_">
					<g id="XMLID_84_" class="st35">
					</g>
				</mask>
				<linearGradient id="XMLID_42_" gradientUnits="userSpaceOnUse" x1="407.6617" y1="52.8323" x2="476.6577" y2="52.8323">
					<stop  offset="0" style="stop-color:#000000"/>
					<stop  offset="0.4845" style="stop-color:#FFFFFF"/>
					<stop  offset="0.9897" style="stop-color:#000000"/>
				</linearGradient>
				<path id="XMLID_16_" class="st36" d="M443.5,70.8c-19.7,0-35.8-16.1-35.8-35.9h2c0,18.7,15.2,33.9,33.8,33.9
					c13.8,0,26.2-8.4,31.4-21.3l1.9,0.7C471.2,61.9,458.1,70.8,443.5,70.8z"/>
			</g>
		</mask>
		<linearGradient id="XMLID_43_" gradientUnits="userSpaceOnUse" x1="407.6617" y1="52.8323" x2="476.6577" y2="52.8323">
			<stop  offset="0" style="stop-color:#FFFFFF"/>
			<stop  offset="0.4845" style="stop-color:#FFFFFF"/>
			<stop  offset="0.9897" style="stop-color:#FFFFFF"/>
		</linearGradient>
		<path id="XMLID_413_" class="st37" d="M443.5,70.8c-19.7,0-35.8-16.1-35.8-35.9h2c0,18.7,15.2,33.9,33.8,33.9
			c13.8,0,26.2-8.4,31.4-21.3l1.9,0.7C471.2,61.9,458.1,70.8,443.5,70.8z"/>
	</g>
	<g id="XMLID_248_">
		<defs>
			<filter id="Adobe_OpacityMaskFilter_4_" filterUnits="userSpaceOnUse" x="20.7" y="161.7" width="208" height="298.8">
				<feFlood  style="flood-color:white;flood-opacity:1" result="back"/>
				<feBlend  in="SourceGraphic" in2="back" mode="normal"/>
			</filter>
		</defs>
		<mask maskUnits="userSpaceOnUse" x="20.7" y="161.7" width="208" height="298.8" id="XMLID_44_">
			<g id="XMLID_10_" class="st38">
				<defs>
					<filter id="Adobe_OpacityMaskFilter_5_" filterUnits="userSpaceOnUse" x="20.7" y="161.7" width="208" height="298.8">
						<feFlood  style="flood-color:white;flood-opacity:1" result="back"/>
						<feBlend  in="SourceGraphic" in2="back" mode="normal"/>
					</filter>
				</defs>
				<mask maskUnits="userSpaceOnUse" x="20.7" y="161.7" width="208" height="298.8" id="XMLID_44_">
					<g id="XMLID_80_" class="st39">
					</g>
				</mask>
				<linearGradient id="XMLID_45_" gradientUnits="userSpaceOnUse" x1="20.6525" y1="311.0989" x2="228.677" y2="311.0989">
					<stop  offset="0" style="stop-color:#000000"/>
					<stop  offset="0.4845" style="stop-color:#FFFFFF"/>
					<stop  offset="0.9897" style="stop-color:#000000"/>
				</linearGradient>
				<path id="XMLID_11_" class="st40" d="M203.2,460.5c-24.3,0-47.3-6.9-66.4-20.2c-26.9-18.7-44.4-48-50.6-84.7
					C74.6,287.6,59,211,20.7,162.9l1.6-1.2C60.9,210.1,76.5,287,88.1,355.3c6.2,36.2,23.4,65.1,49.8,83.4
					c25.3,17.6,57.4,23.8,90.4,17.4l0.4,2C220.1,459.7,211.6,460.5,203.2,460.5z"/>
			</g>
		</mask>
		<linearGradient id="XMLID_46_" gradientUnits="userSpaceOnUse" x1="20.6525" y1="311.0989" x2="228.677" y2="311.0989">
			<stop  offset="0" style="stop-color:#FFFFFF"/>
			<stop  offset="0.4845" style="stop-color:#FFFFFF"/>
			<stop  offset="0.9897" style="stop-color:#FFFFFF"/>
		</linearGradient>
		<path id="XMLID_412_" class="st41" d="M203.2,460.5c-24.3,0-47.3-6.9-66.4-20.2c-26.9-18.7-44.4-48-50.6-84.7
			C74.6,287.6,59,211,20.7,162.9l1.6-1.2C60.9,210.1,76.5,287,88.1,355.3c6.2,36.2,23.4,65.1,49.8,83.4
			c25.3,17.6,57.4,23.8,90.4,17.4l0.4,2C220.1,459.7,211.6,460.5,203.2,460.5z"/>
	</g>
	<g id="XMLID_226_">
		<defs>
			<filter id="Adobe_OpacityMaskFilter_6_" filterUnits="userSpaceOnUse" x="576.6" y="117.5" width="161.7" height="196.3">
				<feFlood  style="flood-color:white;flood-opacity:1" result="back"/>
				<feBlend  in="SourceGraphic" in2="back" mode="normal"/>
			</filter>
		</defs>
		<mask maskUnits="userSpaceOnUse" x="576.6" y="117.5" width="161.7" height="196.3" id="XMLID_47_">
			<g id="XMLID_4_" class="st42">
				<defs>
					<filter id="Adobe_OpacityMaskFilter_7_" filterUnits="userSpaceOnUse" x="576.6" y="117.5" width="161.7" height="196.3">
						<feFlood  style="flood-color:white;flood-opacity:1" result="back"/>
						<feBlend  in="SourceGraphic" in2="back" mode="normal"/>
					</filter>
				</defs>
				<mask maskUnits="userSpaceOnUse" x="576.6" y="117.5" width="161.7" height="196.3" id="XMLID_47_">
					<g id="XMLID_76_" class="st43">
					</g>
				</mask>
				<linearGradient id="XMLID_48_" gradientUnits="userSpaceOnUse" x1="657.4352" y1="117.4815" x2="657.4352" y2="313.732">
					<stop  offset="0" style="stop-color:#000000"/>
					<stop  offset="0.4845" style="stop-color:#FFFFFF"/>
					<stop  offset="0.9897" style="stop-color:#000000"/>
				</linearGradient>
				<path id="XMLID_6_" class="st44" d="M738.3,313.7h-2c0-80.1-55.9-154.2-146.1-193.7c-2.8,5.4-6.9,10.7-12.3,15.7l-1.4-1.5
					c5.5-5.1,9.6-10.5,12.3-16l0.4-0.9l0.9,0.4c44.1,19.1,81.2,47,107.2,80.7C724.1,233.2,738.3,273.1,738.3,313.7z"/>
			</g>
		</mask>
		<linearGradient id="XMLID_49_" gradientUnits="userSpaceOnUse" x1="657.4352" y1="117.4815" x2="657.4352" y2="313.732">
			<stop  offset="0" style="stop-color:#FFFFFF"/>
			<stop  offset="0.4845" style="stop-color:#FFFFFF"/>
			<stop  offset="0.9897" style="stop-color:#FFFFFF"/>
		</linearGradient>
		<path id="XMLID_411_" class="st45" d="M738.3,313.7h-2c0-80.1-55.9-154.2-146.1-193.7c-2.8,5.4-6.9,10.7-12.3,15.7l-1.4-1.5
			c5.5-5.1,9.6-10.5,12.3-16l0.4-0.9l0.9,0.4c44.1,19.1,81.2,47,107.2,80.7C724.1,233.2,738.3,273.1,738.3,313.7z"/>
	</g>
</g>
</svg>
