<?xml version="1.0" encoding="utf-8"?>
<!-- Generator: Adobe Illustrator 21.0.2, SVG Export Plug-In . SVG Version: 6.00 Build 0)  -->
<svg version="1.1" id="Layer_1" xmlns="http://www.w3.org/2000/svg" xmlns:xlink="http://www.w3.org/1999/xlink" x="0px" y="0px"
	 viewBox="0 0 524.8 338.8" style="enable-background:new 0 0 524.8 338.8;" xml:space="preserve">
<style type="text/css">
	.st0{fill-rule:evenodd;clip-rule:evenodd;fill:url(#XMLID_2_);}
	.st1{fill-rule:evenodd;clip-rule:evenodd;fill:url(#XMLID_4_);}
	.st2{fill-rule:evenodd;clip-rule:evenodd;fill:url(#XMLID_5_);}
	.st3{fill-rule:evenodd;clip-rule:evenodd;fill:url(#XMLID_6_);}
	.st4{fill-rule:evenodd;clip-rule:evenodd;fill:url(#XMLID_7_);}
	.st5{fill-rule:evenodd;clip-rule:evenodd;fill:url(#XMLID_8_);}
	.st6{fill-rule:evenodd;clip-rule:evenodd;fill:url(#XMLID_9_);}
	.st7{fill-rule:evenodd;clip-rule:evenodd;fill:#DCDCDD;}
	.st8{fill-rule:evenodd;clip-rule:evenodd;fill:url(#XMLID_10_);}
	.st9{fill-rule:evenodd;clip-rule:evenodd;fill:url(#XMLID_11_);}
	.st10{fill-rule:evenodd;clip-rule:evenodd;fill:url(#XMLID_12_);}
	.st11{fill-rule:evenodd;clip-rule:evenodd;fill:url(#XMLID_13_);}
	.st12{fill-rule:evenodd;clip-rule:evenodd;fill:url(#XMLID_14_);}
	.st13{fill-rule:evenodd;clip-rule:evenodd;fill:url(#XMLID_15_);}
	.st14{fill-rule:evenodd;clip-rule:evenodd;fill:url(#XMLID_16_);}
	.st15{fill-rule:evenodd;clip-rule:evenodd;fill:url(#XMLID_17_);}
	.st16{fill-rule:evenodd;clip-rule:evenodd;fill:url(#XMLID_18_);}
	.st17{fill-rule:evenodd;clip-rule:evenodd;fill:url(#XMLID_19_);}
	.st18{fill-rule:evenodd;clip-rule:evenodd;fill:url(#XMLID_20_);}
	.st19{fill:url(#XMLID_21_);}
	.st20{fill:url(#XMLID_22_);}
	.st21{fill-rule:evenodd;clip-rule:evenodd;fill:url(#XMLID_23_);}
	.st22{fill-rule:evenodd;clip-rule:evenodd;fill:url(#XMLID_24_);}
	.st23{fill-rule:evenodd;clip-rule:evenodd;fill:url(#XMLID_25_);}
	.st24{fill-rule:evenodd;clip-rule:evenodd;fill:url(#XMLID_26_);}
	.st25{fill-rule:evenodd;clip-rule:evenodd;fill:url(#XMLID_27_);}
	.st26{fill-rule:evenodd;clip-rule:evenodd;fill:url(#XMLID_28_);}
	.st27{fill-rule:evenodd;clip-rule:evenodd;fill:url(#XMLID_29_);}
	.st28{fill:#F1EF92;}
	.st29{fill:url(#XMLID_30_);}
	.st30{fill:url(#XMLID_31_);}
	.st31{fill:url(#XMLID_32_);}
	.st32{fill:url(#XMLID_33_);}
	.st33{fill:url(#XMLID_34_);}
	.st34{fill:url(#XMLID_35_);}
	.st35{fill:url(#XMLID_36_);}
	.st36{fill:url(#XMLID_37_);}
	.st37{fill:url(#XMLID_38_);}
	.st38{fill:url(#XMLID_39_);}
	.st39{fill:url(#XMLID_40_);}
	.st40{fill:url(#XMLID_41_);}
	.st41{fill:url(#XMLID_42_);}
	.st42{fill:url(#XMLID_43_);}
</style>
<g id="XMLID_3_">
	<linearGradient id="XMLID_2_" gradientUnits="userSpaceOnUse" x1="263.549" y1="414.7854" x2="263.549" y2="193.9935">
		<stop  offset="1.595870e-02" style="stop-color:#FFFFFF"/>
		<stop  offset="0.1444" style="stop-color:#FBF7F6"/>
		<stop  offset="0.3539" style="stop-color:#F1E3DE"/>
		<stop  offset="0.6183" style="stop-color:#DFC1B6"/>
		<stop  offset="0.9246" style="stop-color:#C89380"/>
		<stop  offset="0.9948" style="stop-color:#C28772"/>
	</linearGradient>
	<path id="XMLID_251_" class="st0" d="M263.5,338.8C119.6,338.8,2.3,293.1,2.3,237c0-56.1,117.4-101.8,261.3-101.8
		c143.9,0,261.3,45.7,261.3,101.8C524.8,293.1,407.5,338.8,263.5,338.8L263.5,338.8z"/>
	<linearGradient id="XMLID_4_" gradientUnits="userSpaceOnUse" x1="789.6284" y1="258.2601" x2="-788.1432" y2="258.2601">
		<stop  offset="1.595870e-02" style="stop-color:#FFFFFF"/>
		<stop  offset="0.1217" style="stop-color:#FCF8F6"/>
		<stop  offset="0.2936" style="stop-color:#F3E4DE"/>
		<stop  offset="0.4191" style="stop-color:#EBD3C8"/>
		<stop  offset="0.6447" style="stop-color:#DCB7A7"/>
		<stop  offset="0.9948" style="stop-color:#C28772"/>
	</linearGradient>
	<path id="XMLID_270_" class="st1" d="M500.1,186.7c-114.6,80.4-266.3,71.6-400.3,60.1c-34.4-3.2-67.4-11.4-99.7-22
		C0.1,225.8,0,226.9,0,228C0,284,117.4,329.8,261.3,329.8c143.9,0,261.3-45.7,261.3-101.8C522.6,213.3,514.6,199.3,500.1,186.7z"/>
	<linearGradient id="XMLID_5_" gradientUnits="userSpaceOnUse" x1="963.3418" y1="190.1827" x2="-546.2342" y2="190.1827">
		<stop  offset="1.595870e-02" style="stop-color:#FFFFFF"/>
		<stop  offset="0.1217" style="stop-color:#FCF8F6"/>
		<stop  offset="0.2936" style="stop-color:#F3E4DE"/>
		<stop  offset="0.4191" style="stop-color:#EBD3C8"/>
		<stop  offset="0.6447" style="stop-color:#DCB7A7"/>
		<stop  offset="0.9948" style="stop-color:#C28772"/>
	</linearGradient>
	<path id="XMLID_303_" class="st2" d="M500.1,186.7c-40.7-35.6-132.6-60.6-238.8-60.6c-141.2,0-256.8,44-261.2,98.7
		c32.3,10.6,65.4,18.8,99.7,22C233.9,258.4,385.6,267.1,500.1,186.7z"/>
	<linearGradient id="XMLID_6_" gradientUnits="userSpaceOnUse" x1="-84.8669" y1="234.5453" x2="855.5566" y2="234.5453">
		<stop  offset="1.595870e-02" style="stop-color:#FFFFFF"/>
		<stop  offset="0.1444" style="stop-color:#FBF7F6"/>
		<stop  offset="0.3539" style="stop-color:#F1E3DE"/>
		<stop  offset="0.6183" style="stop-color:#DFC1B6"/>
		<stop  offset="0.9246" style="stop-color:#C89380"/>
		<stop  offset="0.9948" style="stop-color:#C28772"/>
	</linearGradient>
	<path id="XMLID_367_" class="st3" d="M434.7,234.5c0,2.4-0.4,4.8-1.2,7.2c-10.1,29.5-82.1,52.4-169,52.4c-86.8,0-158.9-23-169-52.4
		c-0.8-2.4-1.2-4.7-1.2-7.2c0-32.8,76.5-59.6,170.2-59.6S434.7,201.7,434.7,234.5z"/>
	<linearGradient id="XMLID_7_" gradientUnits="userSpaceOnUse" x1="-77.5442" y1="236.6346" x2="241.4168" y2="236.6346">
		<stop  offset="1.595870e-02" style="stop-color:#FFFFFF"/>
		<stop  offset="0.1444" style="stop-color:#FBF7F6"/>
		<stop  offset="0.3539" style="stop-color:#F1E3DE"/>
		<stop  offset="0.6183" style="stop-color:#DFC1B6"/>
		<stop  offset="0.9246" style="stop-color:#C89380"/>
		<stop  offset="0.9948" style="stop-color:#C28772"/>
	</linearGradient>
	<path id="XMLID_305_" class="st4" d="M332.5,249.8c11-7,1-24-7-29c-26.6-16-55.7-26-85.8-30.9c-75.4,3.9-135.1,25.2-144.2,51.8
		c5.9,17.2,33,32.2,71.7,41.7c31.5-0.8,63.3-3.4,95.4-7.6C287.6,271.8,311.6,264.8,332.5,249.8z"/>
	<linearGradient id="XMLID_8_" gradientUnits="userSpaceOnUse" x1="595.227" y1="180.1351" x2="-22.2179" y2="257.8267">
		<stop  offset="1.595870e-02" style="stop-color:#FFFFFF"/>
		<stop  offset="0.1444" style="stop-color:#FBF7F6"/>
		<stop  offset="0.3539" style="stop-color:#F1E3DE"/>
		<stop  offset="0.6183" style="stop-color:#DFC1B6"/>
		<stop  offset="0.9246" style="stop-color:#C89380"/>
		<stop  offset="0.9948" style="stop-color:#C28772"/>
	</linearGradient>
	<path id="XMLID_269_" class="st5" d="M264.5,189.2c-8.4,0-16.7,0.2-24.8,0.6c30.1,4.9,59.2,14.9,85.8,30.9
		c7.3,4.6,16.4,19.3,9.2,27.1c27.9-6.4,55.4-15.2,82-25.6C388.8,202.7,331,189.2,264.5,189.2z"/>
	<linearGradient id="XMLID_9_" gradientUnits="userSpaceOnUse" x1="567.1506" y1="231.5711" x2="-401.8365" y2="353.4964">
		<stop  offset="1.595870e-02" style="stop-color:#FFFFFF"/>
		<stop  offset="0.1444" style="stop-color:#FBF7F6"/>
		<stop  offset="0.3539" style="stop-color:#F1E3DE"/>
		<stop  offset="0.6183" style="stop-color:#DFC1B6"/>
		<stop  offset="0.9246" style="stop-color:#C89380"/>
		<stop  offset="0.9948" style="stop-color:#C28772"/>
	</linearGradient>
	<path id="XMLID_369_" class="st6" d="M416.8,222.3c-26.7,10.4-54.1,19.3-82,25.6c-0.6,0.7-1.4,1.3-2.2,1.9c-21,15-44.9,22-69.9,26
		c-32.1,4.2-63.9,6.8-95.4,7.6c27.6,6.8,61.1,10.7,97.3,10.7c86.8,0,158.9-23,169-52.4C431.1,234.8,425.3,228.2,416.8,222.3z"/>
	<path id="XMLID_256_" class="st7" d="M210.6,235.6c10.1,4.5,20.7,7.1,31.7,8.4C231.4,242.7,220.7,240.1,210.6,235.6L210.6,235.6z
		 M242.4,244c1.7,0.2,3.5,0.4,5.2,0.5C245.9,244.4,244.1,244.2,242.4,244L242.4,244z M249.4,244.6c0.6,0,1.2,0.1,1.8,0.1
		C250.6,244.7,250,244.7,249.4,244.6L249.4,244.6z M251.2,244.7c0.6,0,1.2,0.1,1.8,0.1C252.3,244.8,251.7,244.8,251.2,244.7
		L251.2,244.7z M366.2,209c0.2-0.1,0.4-0.2,0.5-0.4C366.5,208.8,366.3,208.9,366.2,209L366.2,209z M370.7,206
		c0.2-0.1,0.4-0.3,0.6-0.4C371.1,205.7,370.9,205.8,370.7,206L370.7,206z M375,202.9c0.2-0.2,0.5-0.3,0.7-0.5
		C375.5,202.6,375.3,202.8,375,202.9L375,202.9z M379.1,199.9c0.2-0.2,0.5-0.4,0.7-0.5C379.6,199.6,379.4,199.8,379.1,199.9
		L379.1,199.9z M382.9,197c0.2-0.2,0.5-0.4,0.7-0.6C383.4,196.6,383.2,196.8,382.9,197L382.9,197z M386.4,194.1
		c0.3-0.2,0.5-0.5,0.8-0.7C387,193.6,386.7,193.9,386.4,194.1L386.4,194.1z M389.8,191.2c0.3-0.2,0.5-0.5,0.8-0.7
		C390.3,190.7,390,190.9,389.8,191.2L389.8,191.2z"/>
	<linearGradient id="XMLID_10_" gradientUnits="userSpaceOnUse" x1="390.1274" y1="209.4902" x2="171.5609" y2="247.0122">
		<stop  offset="1.595870e-02" style="stop-color:#FFFFFF"/>
		<stop  offset="0.1444" style="stop-color:#FBF7F6"/>
		<stop  offset="0.3539" style="stop-color:#F1E3DE"/>
		<stop  offset="0.6183" style="stop-color:#DFC1B6"/>
		<stop  offset="0.9246" style="stop-color:#C89380"/>
		<stop  offset="0.9948" style="stop-color:#C28772"/>
	</linearGradient>
	<path id="XMLID_297_" class="st8" d="M296.6,248.8c15.8-4.3,28.6-12.8,39.4-23.6c-5.5,2.2-11.4,4.5-17.8,6.8
		c-16.9,6.2-35.4,8.2-54.6,7.9c-19.2,0.2-37.7-1.8-54.6-7.9c-9.9-3.6-18.9-7.1-26.9-10.6c-0.9,2.3-1.4,4.6-1.4,7.1
		c0,2.9,0.7,5.6,2,8.3C217.6,253,258.3,258.8,296.6,248.8z"/>
	<linearGradient id="XMLID_11_" gradientUnits="userSpaceOnUse" x1="349.7786" y1="231.242" x2="118.2725" y2="270.9854">
		<stop  offset="1.595870e-02" style="stop-color:#FFFFFF"/>
		<stop  offset="0.1444" style="stop-color:#FBF7F6"/>
		<stop  offset="0.3539" style="stop-color:#F1E3DE"/>
		<stop  offset="0.6183" style="stop-color:#DFC1B6"/>
		<stop  offset="0.9246" style="stop-color:#C89380"/>
		<stop  offset="0.9948" style="stop-color:#C28772"/>
	</linearGradient>
	<path id="XMLID_298_" class="st9" d="M336,225.2c-10.9,10.8-23.6,19.3-39.4,23.6c-38.2,10-79,4.3-113.9-12
		c8.2,17.1,41.3,29.8,80.8,29.8c45.8,0,82.8-17.1,82.8-38.2c0-2.4-0.5-4.7-1.4-7C342.1,222.7,339.1,223.9,336,225.2z"/>
	<g id="XMLID_372_">
		<linearGradient id="XMLID_12_" gradientUnits="userSpaceOnUse" x1="414.5385" y1="80.4585" x2="360.6651" y2="157.0596">
			<stop  offset="1.595870e-02" style="stop-color:#FFFFFF"/>
			<stop  offset="0.1444" style="stop-color:#FBF7F6"/>
			<stop  offset="0.3539" style="stop-color:#F1E3DE"/>
			<stop  offset="0.6183" style="stop-color:#DFC1B6"/>
			<stop  offset="0.9246" style="stop-color:#C89380"/>
			<stop  offset="0.9948" style="stop-color:#C28772"/>
		</linearGradient>
		<path id="XMLID_308_" class="st10" d="M450.9,79.2c-15.5-7.1-35.2-6.7-49.5-0.4c-1.8,0.8-3.6,1.6-5.3,2.4
			c-44.2,26.6-49.8,48.2-49.8,48.2l9.6,7.5C380.4,105.5,412.7,76.4,450.9,79.2z"/>
		<linearGradient id="XMLID_13_" gradientUnits="userSpaceOnUse" x1="480.6849" y1="68.2035" x2="381.1663" y2="209.7065">
			<stop  offset="1.595870e-02" style="stop-color:#FFFFFF"/>
			<stop  offset="0.1444" style="stop-color:#FBF7F6"/>
			<stop  offset="0.3539" style="stop-color:#F1E3DE"/>
			<stop  offset="0.6183" style="stop-color:#DFC1B6"/>
			<stop  offset="0.9246" style="stop-color:#C89380"/>
			<stop  offset="0.9948" style="stop-color:#C28772"/>
		</linearGradient>
		<path id="XMLID_309_" class="st11" d="M415.4,169.8c-19.1,7.8-37.6,18.5-57.8,22.8c-0.6,3-1.2,5.9-1.7,8.9
			c19.9-11.5,41.7-18.3,62.4-27.8c17.1-7.8,34-17.9,46.5-32.3c2.2-5.6,3.7-11.5,4.4-17.5c0.4-3.8,0.3-7.6-0.4-11.4
			C462.7,139.1,440.7,158.9,415.4,169.8z"/>
		<linearGradient id="XMLID_14_" gradientUnits="userSpaceOnUse" x1="458.3805" y1="71.1512" x2="358.3206" y2="213.4238">
			<stop  offset="1.595870e-02" style="stop-color:#FFFFFF"/>
			<stop  offset="0.1444" style="stop-color:#FBF7F6"/>
			<stop  offset="0.3539" style="stop-color:#F1E3DE"/>
			<stop  offset="0.6183" style="stop-color:#DFC1B6"/>
			<stop  offset="0.9246" style="stop-color:#C89380"/>
			<stop  offset="0.9948" style="stop-color:#C28772"/>
		</linearGradient>
		<path id="XMLID_376_" class="st12" d="M468.9,112.4c-2.5-12.9-11.6-24.3-25.5-26.6c-31.3-5.9-54.9,17.9-69.9,41.4l8.1-7.1
			c-4.9,9.1-8.7,18.9-11.3,28.7c-1.6,6.1-4.1,11.5-6.1,17.3c-0.6,1.7-1.1,3.4-1.6,5.1c-1.9,7-3.5,14.2-5,21.3
			c20.2-4.2,38.7-15,57.8-22.8C440.7,158.9,462.7,139.1,468.9,112.4z M384.2,161.8c-1.3,0.3-2.7,0.6-4,0.9
			c4.2-11.1,8.6-22.4,14.3-32.5c7.6-13.6,18.7-25.6,32.6-30.9C433,97,439.4,96,445.2,98c0.4,0.1,0.8,0.3,1.2,0.5
			c0.1,0.1,0.1,0.2,0.2,0.3c0.2,0.4,0.4,0.7,0.6,1.1c0.2,0.4,0.4,0.8,0.6,1.2c0.1,0.3,0.3,0.6,0.4,0.9c0.1,0.3,0.2,0.6,0.3,0.9
			c0.1,0.2,0.1,0.3,0.2,0.5c0.1,0.2,0.2,0.5,0.2,0.7c0.1,0.2,0.1,0.3,0.1,0.5c0.1,0.3,0.2,0.6,0.2,0.9c0.1,0.3,0.1,0.6,0.2,1
			c0.1,0.4,0.1,0.8,0.2,1.2c0,0.3,0.1,0.7,0.1,1c0,0.1,0,0.2,0,0.2c0,0.3,0,0.7,0,1c0,4-1.3,8-4.4,11.9c-15,20-34,33-56.9,39
			C387,161.1,385.6,161.4,384.2,161.8z"/>
		<linearGradient id="XMLID_15_" gradientUnits="userSpaceOnUse" x1="447.9197" y1="86.1642" x2="393.4961" y2="163.5477">
			<stop  offset="1.595870e-02" style="stop-color:#FFFFFF"/>
			<stop  offset="0.1444" style="stop-color:#FBF7F6"/>
			<stop  offset="0.3539" style="stop-color:#F1E3DE"/>
			<stop  offset="0.6183" style="stop-color:#DFC1B6"/>
			<stop  offset="0.9246" style="stop-color:#C89380"/>
			<stop  offset="0.9948" style="stop-color:#C28772"/>
		</linearGradient>
		<path id="XMLID_374_" class="st13" d="M472.3,100.8c-4.1-10.2-12-17.3-21.4-21.6c-38.3-2.8-70.5,26.2-95,57.6l3.5,2.7l14-12.3
			c15-23.5,38.6-47.3,69.9-41.4c18,3,28,21,26,38c-0.7,6-2.2,11.8-4.4,17.5c2.7-3.1,5.2-6.4,7.4-9.9
			C475.8,121.7,476.3,111.2,472.3,100.8z"/>
		<linearGradient id="XMLID_16_" gradientUnits="userSpaceOnUse" x1="344.9623" y1="136.5503" x2="426.0542" y2="136.5503">
			<stop  offset="1.595870e-02" style="stop-color:#FFFFFF"/>
			<stop  offset="0.1444" style="stop-color:#FBF7F6"/>
			<stop  offset="0.3539" style="stop-color:#F1E3DE"/>
			<stop  offset="0.6183" style="stop-color:#DFC1B6"/>
			<stop  offset="0.9246" style="stop-color:#C89380"/>
			<stop  offset="0.9948" style="stop-color:#C28772"/>
		</linearGradient>
		<path id="XMLID_373_" class="st14" d="M445.6,134.3c-15.7,17.4-52.9,35.6-70,40.4c1.5-3.9,3.1-8,4.6-12c1.3-0.3,2.7-0.6,4-0.9
			c1.4-0.3,2.9-0.6,4.3-1c23-6,41.9-19,56.9-39c3.1-3.9,4.4-8,4.4-11.9c0-0.3,0-0.7,0-1c0-0.1,0-0.2,0-0.2c0-0.3,0-0.7-0.1-1
			c0-0.4-0.1-0.8-0.2-1.2c-0.1-0.3-0.1-0.6-0.2-1c-0.1-0.3-0.1-0.6-0.2-0.9c0-0.2-0.1-0.3-0.1-0.5c-0.1-0.2-0.1-0.5-0.2-0.7
			c-0.1-0.2-0.1-0.3-0.2-0.5c-0.1-0.3-0.2-0.6-0.3-0.9c-0.1-0.3-0.3-0.6-0.4-0.9c-0.2-0.4-0.4-0.8-0.6-1.2c-0.2-0.3-0.4-0.7-0.6-1.1
			c0-0.1-0.1-0.2-0.1-0.3c5.3,2.2,9.7,7.3,10.2,13.3C457.3,120.2,451.2,128.1,445.6,134.3z"/>
		<linearGradient id="XMLID_17_" gradientUnits="userSpaceOnUse" x1="446.4341" y1="98.5603" x2="446.5938" y2="98.5603">
			<stop  offset="1.595870e-02" style="stop-color:#FFFFFF"/>
			<stop  offset="0.1444" style="stop-color:#FBF7F6"/>
			<stop  offset="0.3539" style="stop-color:#F1E3DE"/>
			<stop  offset="0.6183" style="stop-color:#DFC1B6"/>
			<stop  offset="0.9246" style="stop-color:#C89380"/>
			<stop  offset="0.9948" style="stop-color:#C28772"/>
		</linearGradient>
		<path id="XMLID_375_" class="st15" d="M446.4,98.4c0,0.1,0.1,0.2,0.1,0.3C446.5,98.6,446.5,98.5,446.4,98.4L446.4,98.4z"/>
	</g>
	<g id="XMLID_254_">
		<linearGradient id="XMLID_18_" gradientUnits="userSpaceOnUse" x1="247.0411" y1="287.8726" x2="275.5367" y2="-82.5706">
			<stop  offset="1.595870e-02" style="stop-color:#FFFFFF"/>
			<stop  offset="0.1444" style="stop-color:#FBF7F6"/>
			<stop  offset="0.3539" style="stop-color:#F1E3DE"/>
			<stop  offset="0.6183" style="stop-color:#DFC1B6"/>
			<stop  offset="0.9246" style="stop-color:#C89380"/>
			<stop  offset="0.9948" style="stop-color:#C28772"/>
		</linearGradient>
		<path id="XMLID_253_" class="st16" d="M424.4,60.5H274.1h-20.9l-148.6,1.2l2.7,7.6c20,55.9-2.1,175.7,156.3,175.7
			C425.8,245,388.8,118.6,424.4,60.5L424.4,60.5z"/>
		<linearGradient id="XMLID_19_" gradientUnits="userSpaceOnUse" x1="423.4249" y1="101.3342" x2="-29.2902" y2="462.1075">
			<stop  offset="1.595870e-02" style="stop-color:#FFFFFF"/>
			<stop  offset="0.312" style="stop-color:#EEDED8"/>
			<stop  offset="0.9724" style="stop-color:#C38A75"/>
			<stop  offset="0.9948" style="stop-color:#C28772"/>
		</linearGradient>
		<path id="XMLID_279_" class="st17" d="M392.9,60.5h-2.1c-3.2,4.1-6.5,7.9-10,11.6c-7.2,25-10,51.4-16.3,77.7
			c-7.3,35.1-23.7,71.3-52.7,90.5c5.2-1.1,10.2-2.5,14.8-4c54.8-18.1,67.9-61.8,76.7-104.1c5.6-26.7,9.5-52.8,21-71.7H392.9z"/>
		<linearGradient id="XMLID_20_" gradientUnits="userSpaceOnUse" x1="310.1815" y1="189.5357" x2="163.2426" y2="445.4288">
			<stop  offset="1.595870e-02" style="stop-color:#FFFFFF"/>
			<stop  offset="0.312" style="stop-color:#EEDED8"/>
			<stop  offset="0.9724" style="stop-color:#C38A75"/>
			<stop  offset="0.9948" style="stop-color:#C28772"/>
		</linearGradient>
		<path id="XMLID_280_" class="st18" d="M310.6,114.3c-3.2,47.8-15.6,105.4-53.4,130.6c2.1,0,4.3,0.1,6.4,0.1
			c18.5,0,34.4-1.7,48.1-4.7c29-19.2,45.4-55.4,52.7-90.5c6.2-26.4,9.1-52.7,16.3-77.7C361.1,92.7,337,106.2,310.6,114.3z"/>
		<linearGradient id="XMLID_21_" gradientUnits="userSpaceOnUse" x1="150.0237" y1="253.8884" x2="260.9813" y2="-24.0049">
			<stop  offset="1.595870e-02" style="stop-color:#FFFFFF"/>
			<stop  offset="0.312" style="stop-color:#EEDED8"/>
			<stop  offset="0.9724" style="stop-color:#C38A75"/>
			<stop  offset="0.9948" style="stop-color:#C28772"/>
		</linearGradient>
		<path id="XMLID_283_" class="st19" d="M131.8,104.8c39.9,17,82.9,11,124.8,5c34.7-4.5,69.3-21.6,92.7-49.3h-75.3h-20.9l-115.9,1
			l-32.7,0.3l2.7,7.6c3.1,8.8,5.2,19.1,7.2,30.3c1.6,9.5,3.1,19.6,5,29.8c8.3,45,24.1,93.5,90.9,109.8c-9.3-6.6-18.3-13.8-27.6-20.5
			C143.8,191.8,136.8,146.8,131.8,104.8z"/>
		<linearGradient id="XMLID_22_" gradientUnits="userSpaceOnUse" x1="261.2965" y1="301.8878" x2="261.2965" y2="-115.412">
			<stop  offset="1.595870e-02" style="stop-color:#FFFFFF"/>
			<stop  offset="0.312" style="stop-color:#EEDED8"/>
			<stop  offset="0.9724" style="stop-color:#C38A75"/>
			<stop  offset="0.9948" style="stop-color:#C28772"/>
		</linearGradient>
		<path id="XMLID_276_" class="st20" d="M349.4,60.5c-23.4,27.7-58.1,44.8-92.7,49.3c-41.9,6-84.9,12-124.8-5c5,42,12,87,50.9,114
			c9.3,6.6,18.4,13.8,27.6,20.5c1.5,0.4,3,0.7,4.5,1c1.7,0.4,3.3,0.7,5.1,1c11.1,2.1,23.5,3.3,37.3,3.6
			c37.8-25.2,50.2-82.8,53.4-130.6c31-9.6,58.8-26.6,80.1-53.8H349.4z"/>
		<linearGradient id="XMLID_23_" gradientUnits="userSpaceOnUse" x1="578.0737" y1="11.706" x2="177.6431" y2="70.6222">
			<stop  offset="1.595870e-02" style="stop-color:#FFFFFF"/>
			<stop  offset="0.1444" style="stop-color:#FBF7F6"/>
			<stop  offset="0.3539" style="stop-color:#F1E3DE"/>
			<stop  offset="0.6183" style="stop-color:#DFC1B6"/>
			<stop  offset="0.9246" style="stop-color:#C89380"/>
			<stop  offset="0.9948" style="stop-color:#C28772"/>
		</linearGradient>
		<path id="XMLID_304_" class="st21" d="M264.4,115.7c-88.2,0-160.1-26-160.1-57.9S176.2,0,264.4,0s160.1,26,160.1,57.9
			S352.6,115.7,264.4,115.7L264.4,115.7z"/>
		<linearGradient id="XMLID_24_" gradientUnits="userSpaceOnUse" x1="120.0311" y1="105.0931" x2="403.0773" y2="8.819">
			<stop  offset="1.595870e-02" style="stop-color:#FFFFFF"/>
			<stop  offset="0.1444" style="stop-color:#FBF7F6"/>
			<stop  offset="0.3539" style="stop-color:#F1E3DE"/>
			<stop  offset="0.6183" style="stop-color:#DFC1B6"/>
			<stop  offset="0.9246" style="stop-color:#C89380"/>
			<stop  offset="0.9948" style="stop-color:#C28772"/>
		</linearGradient>
		<path id="XMLID_365_" class="st22" d="M418.1,58.5c-1.6,6.4-6.2,12.5-13.3,18.1c-3.9,3.1-8.6,6-14,8.8
			c-27.9,14.4-74.2,23.8-126.5,23.8s-98.6-9.4-126.5-23.8c-5.4-2.8-10-5.7-13.9-8.8c-8-6.3-12.8-13.3-13.7-20.6
			c3.7-29.6,71.3-53.2,154.2-53.2c80.5,0,146.7,22.3,153.8,50.7C418.6,55.1,418.6,56.8,418.1,58.5z"/>
		<linearGradient id="XMLID_25_" gradientUnits="userSpaceOnUse" x1="97.8866" y1="54.4389" x2="470.3297" y2="117.3448">
			<stop  offset="0" style="stop-color:#FFFFFF"/>
			<stop  offset="0.3866" style="stop-color:#B75226"/>
			<stop  offset="1" style="stop-color:#601701"/>
		</linearGradient>
		<path id="XMLID_277_" class="st23" d="M216.7,75.8c8-15,30-13,41.9-24c2-3-7-4-11-4c-39,1-83.3,8.3-113.4,35.7
			c1.1,0.6,2.3,1.3,3.5,1.9c22.2,11.5,56.2,19.8,95.5,22.7C220.9,99.7,207.3,92.4,216.7,75.8z"/>
		<linearGradient id="XMLID_26_" gradientUnits="userSpaceOnUse" x1="268.4984" y1="-35.1773" x2="318.4474" y2="20.7656">
			<stop  offset="0" style="stop-color:#BF6530"/>
			<stop  offset="0.3866" style="stop-color:#B75226"/>
			<stop  offset="1" style="stop-color:#520D00"/>
		</linearGradient>
		<path id="XMLID_282_" class="st24" d="M404.9,76.6C389,57.4,348.1,42.5,297.2,38c17.8,4.6,35.2,10.4,51.3,19.8
			c13.5,7.8,25.1,18.8,33.1,31.9c3.3-1.4,6.4-2.8,9.3-4.3C396.3,82.6,401,79.7,404.9,76.6z"/>
		<linearGradient id="XMLID_27_" gradientUnits="userSpaceOnUse" x1="192.6928" y1="72.1508" x2="344.227" y2="72.1508">
			<stop  offset="0" style="stop-color:#BF6530"/>
			<stop  offset="0.3866" style="stop-color:#B75226"/>
			<stop  offset="1" style="stop-color:#601701"/>
		</linearGradient>
		<path id="XMLID_307_" class="st25" d="M348.5,57.8c-16.1-9.4-33.5-15.2-51.3-19.8c-8.1-0.7-16.4-1.2-25-1.4
			c10.7,1.6,20.8,5.4,29.3,12.1c13,10,13,28,7,43c-2.4,5.4-5,10.7-7.9,15.9c32-2.8,60.1-9.2,80.9-17.9
			C373.6,76.6,362,65.6,348.5,57.8z"/>
		<linearGradient id="XMLID_28_" gradientUnits="userSpaceOnUse" x1="109.4625" y1="72.8853" x2="447.115" y2="72.8853">
			<stop  offset="0" style="stop-color:#BF6530"/>
			<stop  offset="0.3866" style="stop-color:#B75226"/>
			<stop  offset="1" style="stop-color:#601701"/>
		</linearGradient>
		<path id="XMLID_306_" class="st26" d="M301.6,48.8c-8.6-6.8-18.7-10.5-29.3-12.1c-2.6-0.1-5.2-0.1-7.9-0.1c-3.3,0-6.6,0.1-9.9,0.1
			c1.1,0.5,2.1,1.1,3.2,1.1c-1.1,0-2.1-0.6-3.2-1.1c-61.3,1.6-112.4,17.8-130.6,39.9c3,2.4,6.5,4.7,10.4,6.9
			c30-27.4,74.4-34.7,113.4-35.7c4,0,13,1,11,4c-12,11-34,9-41.9,24c-9.4,16.7,4.2,23.9,16.7,32.3c10,0.7,20.4,1.1,31,1.1
			c12.5,0,24.7-0.5,36.3-1.6c2.8-5.2,5.5-10.5,7.9-15.9C314.6,76.8,314.6,58.8,301.6,48.8z"/>
	</g>
	
		<linearGradient id="XMLID_29_" gradientUnits="userSpaceOnUse" x1="320.0913" y1="270.5327" x2="448.1627" y2="270.5327" gradientTransform="matrix(0.9643 0.1331 -0.1367 0.9906 49.7851 -48.7743)">
		<stop  offset="1.595870e-02" style="stop-color:#FFFFFF"/>
		<stop  offset="0.1444" style="stop-color:#FBF7F6"/>
		<stop  offset="0.3539" style="stop-color:#F1E3DE"/>
		<stop  offset="0.6183" style="stop-color:#DFC1B6"/>
		<stop  offset="0.9246" style="stop-color:#C89380"/>
		<stop  offset="0.9948" style="stop-color:#C28772"/>
	</linearGradient>
	<path id="XMLID_252_" class="st27" d="M372.5,296.1c-14.4,1.3-29.2,1.7-42.7-2.8c-5.3-1.7-11.2-5.7-10.9-12.4
		c0.2-4.7,3.7-8.4,7-11.1c8.7-6.9,18.6-10.7,28.6-13.9c16.6-5.2,33.3-7.9,50.2-9.8c13.2-1.5,27.9-4.7,38.1,7.3
		c3.4,4,5.6,10.5,3,15.5c-1.3,2.4-3.4,4-5.4,5.3c-16.8,11.3-35.4,18.3-54.2,20.3C381.7,295.1,377.1,295.6,372.5,296.1z"/>
	<g id="XMLID_255_">
		<path id="XMLID_468_" class="st28" d="M466.7,252.8c-7.1,7.5-16.1,13.6-26.5,17.3c-35.2,12.8-74.3-4.9-88.1-39.6l3.7-1.4l0.2-0.1
			c0,0,0.2-0.1,0.5-0.2l42.3-15.4c0.2-0.1,0.9-0.6,1.8-1c0,0,0,0,0,0c1.7-0.8,3.9-1.7,2.6-0.7c0,0,0,0,0,0l1.7-0.6l34-12.4
			c0,0,0,0,0,0c0,0,0.1,0,0.1,0l39.3-14.3l0.2-0.1l3.7-1.4C490.6,208.2,483.8,234.8,466.7,252.8z"/>
		
			<radialGradient id="XMLID_30_" cx="462.1544" cy="221.8939" r="155.2641" gradientTransform="matrix(0.9385 -0.3417 0.3412 0.9398 -49.4937 159.1946)" gradientUnits="userSpaceOnUse">
			<stop  offset="0" style="stop-color:#FFF493"/>
			<stop  offset="1" style="stop-color:#FDD825"/>
		</radialGradient>
		<path id="XMLID_408_" class="st29" d="M478.4,184.6l-39.3,14.3c-0.1,0-0.1,0-0.1,0c0,0,0,0,0,0l-34,12.4l-0.5,0.2l-1.2,0.4
			c0,0,0,0,0,0c0.1-0.2-0.8,0.1-2.6,0.7c0,0,0,0,0,0c-9.3,3.1-39.8,14.7-44.1,16.4c-0.3,0.1-0.5,0.2-0.5,0.2
			c12.1,30.2,44.4,46.6,75.4,39.3c2.4-0.6,4.9-1.3,7.3-2.2c24.3-8.8,40.1-30.7,42.5-54.9C482.2,202.6,481.3,193.5,478.4,184.6z
			 M381.6,246.1c-2.4,1.5-6.7-3.2-7.6-4.1c-1-0.9-11.3-13.5-3.4-16.3c7.9-2.9,37.6-16.1,37.1-10.9
			C407.6,214.8,384,244.6,381.6,246.1z M414.2,256.6c-0.9,10.6-24,0.3-27.9-4.2c-3.9-4.5,12.2-23.5,16.7-28.4c8.3-10.1,9-6.9,9-6.9
			C413.4,218.4,415.1,246,414.2,256.6z M431.2,261.8c-3,0.8-11.9,0.5-13.3-2c-1.4-2.5-3.2-34.7-3-37.7c0.2-3,0.1-5.6,2.4-6.3
			c3.3-1.1,16.7,24.3,25.1,32.8C450.6,257.2,434.2,261,431.2,261.8z M463.1,237.1c-1.1,3.6-2.7,6.2-4.4,8.1
			c-5.1,5.6-11.6,4.8-12.6,4.7c-0.9-0.2-13.9-18.4-21.1-28.5c-0.2-0.3-0.4-0.6-0.7-0.9c-2.4-3.4-4-5.6-4-5.6
			c-0.8-1.1-0.6-2.4,0.1-3.2c0-0.1,0.1-0.1,0.2-0.2c0.3-0.3,0.7-0.5,1.2-0.5c0.2,0,0.8,0.2,1.8,0.5c0.1,0.1,0.3,0.1,0.4,0.2
			c2.9,1.1,8.1,3.5,13.9,6.1c0.2,0.2,0.8,0.4,1.5,0.7c5.6,2.5,11.5,5.1,16.2,6.9c7.3,2.8,8.5,6.5,8.3,9
			C463.9,236,463.1,237.1,463.1,237.1z M473.1,211.4c0,1.6-0.1,3.2-0.1,4.6c-0.1,6-3.6,8.4-6.2,9.3c-1.6,0.6-2.8,0.6-2.8,0.6
			c-1.5-0.2-8.2-2.9-15.5-6.2c0.1,0,0.2-0.1,0.2-0.2c0.1-0.4-1.7-1-4.2-1.6c-5.5-2.4-10.9-4.9-14.3-6.5c-0.1-0.1-0.2-0.1-0.4-0.2
			c-2.1-1-3.4-1.5-3.4-1.5c-3.7-1.5,0.6-4.9,0.6-4.9s21.7-8,34.6-10.8C472.6,191.7,473.2,202.2,473.1,211.4z"/>
		
			<radialGradient id="XMLID_31_" cx="487.4887" cy="162.0014" r="156.9114" gradientTransform="matrix(0.9385 -0.3417 0.3412 0.9398 -49.4937 159.1946)" gradientUnits="userSpaceOnUse">
			<stop  offset="0" style="stop-color:#FFF493"/>
			<stop  offset="1" style="stop-color:#FDD825"/>
		</radialGradient>
		<path id="XMLID_345_" class="st30" d="M426.5,209.8c0,0,8.9,4.1,18.1,8.2c2.5,0.6,4.2,1.2,4.2,1.6c0,0.1-0.1,0.1-0.2,0.1
			c7.3,3.2,14,6,15.6,6.2c0,0,8.8-0.3,9-10c0.1-9.6,1.5-24.7-11.4-21.9c-12.9,2.8-34.6,10.8-34.6,10.8S422.8,208.3,426.5,209.8z
			 M447.1,210.7c3.7,0,6.6,0.2,6.6,0.6c0,0.4-3,0.7-6.7,0.7c-3.7,0-6.6-0.2-6.6-0.6C440.4,211,443.4,210.7,447.1,210.7z M460,199
			c0.1,0.4-2.7,1.4-6.2,2.4c-3.5,1-6.5,1.5-6.5,1.2c-0.1-0.3,2.7-1.4,6.3-2.4C457,199.2,459.9,198.7,460,199z M435.4,208.4
			c-2.7,0.3-4.9,0.2-4.9-0.4c-0.1-0.5,2-1.2,4.7-1.5c2.7-0.3,4.9-0.2,4.9,0.4C440.2,207.4,438.1,208.1,435.4,208.4z"/>
		
			<radialGradient id="XMLID_32_" cx="487.4904" cy="162.0007" r="156.9151" gradientTransform="matrix(0.9385 -0.3417 0.3412 0.9398 -49.4937 159.1946)" gradientUnits="userSpaceOnUse">
			<stop  offset="0" style="stop-color:#FFF493"/>
			<stop  offset="1" style="stop-color:#FDD825"/>
		</radialGradient>
		<path id="XMLID_340_" class="st31" d="M455.8,225.3c-4.7-1.8-10.6-4.4-16.2-6.9c-0.8-0.3-1.3-0.5-1.5-0.7
			c-8.2-3.7-15.2-6.9-16.1-6.9c-1.6,0.1-2.7,2.3-1.5,3.9c0,0,1.6,2.3,4,5.6c0.3,0.3,0.5,0.7,0.7,0.9c7.2,10.1,20.2,28.3,21.1,28.5
			c1.3,0.3,12.5,1.6,16.9-12.7C463.1,237.1,468,230,455.8,225.3z M444.9,241.3c-0.3,0.3-2.7-1.5-5.4-4c-2.7-2.4-4.8-4.6-4.5-4.9
			c0.2-0.3,2.7,1.5,5.4,4C443.1,238.9,445.2,241.1,444.9,241.3z M437.4,225.3c1.8,2,3.1,3.8,2.8,3.9c-0.3,0.1-2.1-1.4-4-3.5
			c-1.9-2-3.1-3.8-2.8-3.9C433.8,221.7,435.5,223.3,437.4,225.3z M451.6,232.8c-0.3,0.2-2.4-0.8-4.8-2.2c-2.4-1.4-4.1-2.7-3.8-2.9
			c0.3-0.2,2.4,0.8,4.8,2.2C450.2,231.3,451.9,232.6,451.6,232.8z"/>
		
			<radialGradient id="XMLID_33_" cx="482.9297" cy="140.9588" r="264.5627" gradientTransform="matrix(0.9986 0 0 1 0.831 0)" gradientUnits="userSpaceOnUse">
			<stop  offset="0" style="stop-color:#FFF493"/>
			<stop  offset="0.4948" style="stop-color:#FDD825"/>
			<stop  offset="0.9742" style="stop-color:#F9BF2A"/>
		</radialGradient>
		<path id="XMLID_423_" class="st32" d="M466.7,252.8c-7.1,7.5-16.1,13.6-26.5,17.3c-35.2,12.8-74.3-4.9-88.1-39.6l3.7-1.4l0.2-0.1
			c13,32.5,49.7,49.1,82.8,37.1c24.3-8.8,40.1-30.7,42.5-54.9c0.9-8.8,0-17.9-2.9-26.8l0.2-0.1l3.7-1.4
			C490.6,208.2,483.8,234.8,466.7,252.8z"/>
		<path id="XMLID_315_" class="st28" d="M447.2,202.6c0.1,0.3,3-0.2,6.5-1.2c3.5-1,6.3-2.1,6.2-2.4c-0.1-0.3-3,0.2-6.5,1.2
			C449.9,201.2,447.1,202.3,447.2,202.6z"/>
		
			<radialGradient id="XMLID_34_" cx="487.4899" cy="162.0004" r="156.9151" gradientTransform="matrix(0.9385 -0.3417 0.3412 0.9398 -49.4937 159.1946)" gradientUnits="userSpaceOnUse">
			<stop  offset="0" style="stop-color:#FFF493"/>
			<stop  offset="1" style="stop-color:#FDD825"/>
		</radialGradient>
		<path id="XMLID_335_" class="st33" d="M414.8,222.1c-0.2,3,1.6,35.2,3,37.7c1.4,2.5,10.4,2.8,13.3,2c3-0.8,19.4-4.6,11.1-13.2
			c-8.3-8.5-21.8-33.9-25.1-32.8C415,216.6,415,219.2,414.8,222.1z M421.4,247.6c0.7,3,1,5.5,0.6,5.5c-0.4,0.1-1.3-2.2-2.1-5.2
			c-0.7-3-1-5.4-0.6-5.5C419.7,242.3,420.6,244.7,421.4,247.6z M418.2,233.9c-0.3,0.1-0.9-1.3-1.3-3.1c-0.4-1.8-0.4-3.3-0.1-3.4
			c0.3-0.1,0.9,1.3,1.3,3.1C418.5,232.4,418.5,233.9,418.2,233.9z M426.9,235.4c-0.4,0.2-1.5-1.2-2.5-3c-1-1.9-1.5-3.5-1.1-3.7
			c0.4-0.2,1.5,1.2,2.5,3C426.8,233.5,427.3,235.2,426.9,235.4z"/>
		
			<radialGradient id="XMLID_35_" cx="487.4871" cy="162" r="156.9139" gradientTransform="matrix(0.9385 -0.3417 0.3412 0.9398 -49.4937 159.1946)" gradientUnits="userSpaceOnUse">
			<stop  offset="0" style="stop-color:#FFF493"/>
			<stop  offset="1" style="stop-color:#FDD825"/>
		</radialGradient>
		<path id="XMLID_330_" class="st34" d="M386.3,252.4c3.9,4.5,27,14.8,27.9,4.2c0.9-10.6-0.8-38.1-2.1-39.6c0,0-0.7-3.2-9,6.9
			C398.5,228.9,382.4,247.9,386.3,252.4z M396,236.8c0.9-1.9,1.9-3.4,2.3-3.2c0.4,0.2,0,1.9-0.9,3.8c-0.9,1.9-1.9,3.4-2.3,3.2
			C394.7,240.5,395.1,238.8,396,236.8z M402.1,245.8c-1.2,3.5-2.4,6.2-2.8,6.1c-0.3-0.1,0.4-3.1,1.6-6.5c1.2-3.5,2.4-6.2,2.8-6.1
			C404,239.4,403.3,242.3,402.1,245.8z M407.8,227.1c0.3,0.1,0.3,1.6-0.1,3.4c-0.4,1.8-0.9,3.2-1.2,3.1c-0.3-0.1-0.3-1.6,0.1-3.4
			C406.9,228.5,407.4,227,407.8,227.1z"/>
		
			<radialGradient id="XMLID_36_" cx="487.4883" cy="161.9999" r="156.9147" gradientTransform="matrix(0.9385 -0.3417 0.3412 0.9398 -49.4937 159.1946)" gradientUnits="userSpaceOnUse">
			<stop  offset="0" style="stop-color:#FFF493"/>
			<stop  offset="1" style="stop-color:#FDD825"/>
		</radialGradient>
		<path id="XMLID_325_" class="st35" d="M370.5,225.7c-7.9,2.9,2.4,15.4,3.4,16.3c1,0.9,5.2,5.6,7.6,4.1c2.4-1.5,26-31.3,26-31.3
			C408.1,209.6,378.5,222.8,370.5,225.7z M385,238c-2.9,2.2-5.5,3.7-5.7,3.4c-0.2-0.3,2-2.4,4.9-4.6c3-2.2,5.5-3.7,5.7-3.4
			C390.1,233.8,387.9,235.8,385,238z M384.2,232.1c-2.9,2.2-5.5,3.7-5.7,3.4c-0.2-0.3,2-2.4,4.9-4.6s5.5-3.7,5.7-3.4
			C389.3,227.9,387.1,229.9,384.2,232.1z M397.4,224.5c-1.5,1.1-2.8,1.8-3,1.5c-0.2-0.3,0.8-1.4,2.3-2.5c1.5-1.1,2.8-1.8,3-1.5
			C399.8,222.3,398.8,223.4,397.4,224.5z"/>
		<path id="XMLID_323_" class="st28" d="M406.5,233.6c0.3,0.1,0.9-1.3,1.2-3.1c0.4-1.8,0.4-3.3,0.1-3.4c-0.3-0.1-0.9,1.3-1.2,3.1
			C406.2,232,406.1,233.5,406.5,233.6z"/>
		<path id="XMLID_322_" class="st28" d="M396.6,223.5c-1.5,1.1-2.5,2.2-2.3,2.5c0.2,0.3,1.5-0.4,3-1.5c1.5-1.1,2.5-2.2,2.3-2.5
			C399.4,221.7,398.1,222.4,396.6,223.5z"/>
		<path id="XMLID_321_" class="st28" d="M416.9,227.4c-0.3,0.1-0.3,1.6,0.1,3.4c0.4,1.8,0.9,3.2,1.3,3.1c0.3-0.1,0.3-1.6-0.1-3.4
			C417.8,228.8,417.2,227.4,416.9,227.4z"/>
		<path id="XMLID_320_" class="st28" d="M435.2,206.5c-2.7,0.3-4.8,1-4.7,1.5c0.1,0.5,2.3,0.7,4.9,0.4c2.7-0.3,4.8-1,4.7-1.5
			C440.1,206.4,437.8,206.2,435.2,206.5z"/>
		<path id="XMLID_319_" class="st28" d="M397.4,237.5c0.9-1.9,1.3-3.6,0.9-3.8c-0.4-0.2-1.4,1.3-2.3,3.2c-0.9,1.9-1.3,3.6-0.9,3.8
			C395.5,240.8,396.5,239.4,397.4,237.5z"/>
		<path id="XMLID_318_" class="st28" d="M423.4,228.6c-0.4,0.2,0.1,1.9,1.1,3.7c1,1.9,2.1,3.2,2.5,3c0.4-0.2-0.1-1.9-1.1-3.7
			C424.8,229.7,423.7,228.4,423.4,228.6z"/>
		<path id="XMLID_317_" class="st28" d="M419.3,242.4c-0.4,0.1-0.1,2.6,0.6,5.5c0.7,3,1.7,5.3,2.1,5.2c0.4-0.1,0.1-2.6-0.6-5.5
			C420.6,244.7,419.7,242.3,419.3,242.4z"/>
		<path id="XMLID_316_" class="st28" d="M440.4,211.4c0,0.4,2.9,0.6,6.6,0.6c3.7,0,6.6-0.4,6.7-0.7c0-0.4-3-0.6-6.6-0.6
			C443.4,210.7,440.4,211,440.4,211.4z"/>
		<path id="XMLID_314_" class="st28" d="M435,232.5c-0.3,0.3,1.8,2.4,4.5,4.9c2.7,2.5,5.1,4.2,5.4,4c0.2-0.2-1.8-2.4-4.5-4.9
			C437.7,234,435.2,232.2,435,232.5z"/>
		<path id="XMLID_313_" class="st28" d="M443,227.7c-0.3,0.2,1.4,1.5,3.8,2.9c2.4,1.4,4.5,2.4,4.8,2.2c0.3-0.2-1.5-1.5-3.8-2.9
			C445.4,228.5,443.3,227.5,443,227.7z"/>
		<path id="XMLID_312_" class="st28" d="M433.4,221.8c-0.3,0.1,0.9,1.9,2.8,3.9c1.9,2,3.6,3.6,4,3.5c0.3-0.1-1-1.9-2.8-3.9
			C435.5,223.3,433.8,221.7,433.4,221.8z"/>
		<path id="XMLID_311_" class="st28" d="M384.1,236.9c-2.9,2.2-5.1,4.2-4.9,4.6c0.2,0.3,2.8-1.2,5.7-3.4c2.9-2.2,5.1-4.2,4.9-4.6
			C389.7,233.1,387.1,234.7,384.1,236.9z"/>
		<path id="XMLID_271_" class="st28" d="M383.4,230.9c-2.9,2.2-5.1,4.2-4.9,4.6c0.2,0.3,2.8-1.2,5.7-3.4c2.9-2.2,5.1-4.2,4.9-4.6
			C388.9,227.2,386.3,228.7,383.4,230.9z"/>
		<path id="XMLID_268_" class="st28" d="M400.9,245.3c-1.2,3.5-1.9,6.4-1.6,6.5c0.3,0.1,1.6-2.6,2.8-6.1c1.2-3.5,1.9-6.4,1.6-6.5
			C403.3,239.1,402.1,241.9,400.9,245.3z"/>
	</g>
	<g id="XMLID_250_">
		<path id="XMLID_415_" class="st28" d="M464.7,221.1h-0.2h-41.9c-0.1,0-0.1,0-0.1,0c0,0,0,0,0,0h-38c2.5-0.9,4.2-1.6,4.1-2
			c-0.1-0.4-3,0.2-6.5,1.2c-0.8,0.2-1.6,0.5-2.3,0.7h-45.5h-0.2h-4c1.1,37.3,31.8,67.3,69.3,67.3s68.1-30,69.2-67.3H464.7z"/>
		
			<radialGradient id="XMLID_37_" cx="463.624" cy="178.5974" r="156.9141" gradientTransform="matrix(0.9986 0 0 1 0.831 0)" gradientUnits="userSpaceOnUse">
			<stop  offset="0" style="stop-color:#FFF493"/>
			<stop  offset="1" style="stop-color:#FDD825"/>
		</radialGradient>
		<path id="XMLID_358_" class="st36" d="M407,227c0,0,7,6.9,14.2,13.9c2.1,1.4,3.6,2.6,3.4,2.9c0,0.1-0.1,0.1-0.3,0.1
			c5.8,5.5,11.1,10.4,12.5,11.1c0,0,8.4,2.7,11.8-6.3c3.4-9,9.9-22.7-3.2-24.4c-13.1-1.8-36.2-1.6-36.2-1.6S404.1,224.3,407,227z
			 M426.1,234.9c3.4,1.2,6.2,2.5,6,2.8c-0.1,0.3-3-0.4-6.5-1.6c-3.5-1.2-6.2-2.5-6-2.8C419.8,232.9,422.7,233.7,426.1,234.9z
			 M442.2,228.4c0,0.4-3,0.4-6.7,0.1c-3.7-0.3-6.6-0.8-6.5-1.1c0-0.4,3-0.4,6.7-0.1C439.3,227.5,442.3,228,442.2,228.4z
			 M415.9,228.8c-2.6-0.6-4.6-1.5-4.5-2c0.1-0.5,2.3-0.4,4.9,0.2c2.6,0.6,4.6,1.5,4.5,2C420.7,229.5,418.5,229.4,415.9,228.8z"/>
		
			<radialGradient id="XMLID_38_" cx="463.6239" cy="178.5971" r="156.9147" gradientTransform="matrix(0.9986 0 0 1 0.831 0)" gradientUnits="userSpaceOnUse">
			<stop  offset="0" style="stop-color:#FFF493"/>
			<stop  offset="1" style="stop-color:#FDD825"/>
		</radialGradient>
		<path id="XMLID_363_" class="st37" d="M429.3,251.6c-3.8-3.4-8.5-7.8-12.9-12.1c-0.6-0.5-1.1-0.9-1.2-1.2
			c-6.4-6.2-12-11.7-12.8-12c-1.5-0.5-3.3,1.2-2.7,3.2c0,0,0.7,2.7,1.8,6.6c0.1,0.4,0.2,0.8,0.3,1.1c3.3,11.9,9.3,33.5,10.1,34
			c1.1,0.7,11.2,5.7,20.2-6.2C432.2,265.2,439.2,260.3,429.3,251.6z M413.6,263c-0.3,0.1-2-2.3-3.7-5.6c-1.7-3.2-2.9-6-2.6-6.1
			c0.3-0.2,2,2.3,3.7,5.6C412.8,260.1,413.9,262.8,413.6,263z M412,245.3c1,2.5,1.6,4.6,1.3,4.6c-0.3,0-1.5-2.1-2.5-4.6
			c-1.1-2.6-1.6-4.6-1.3-4.6C409.8,240.7,411,242.8,412,245.3z M422.8,257.3c-0.3,0.1-2-1.5-3.8-3.7s-2.9-4-2.6-4.1
			c0.3-0.1,2,1.5,3.8,3.7C422,255.4,423.1,257.2,422.8,257.3z"/>
		
			<radialGradient id="XMLID_39_" cx="463.6239" cy="178.5973" r="156.9137" gradientTransform="matrix(0.9986 0 0 1 0.831 0)" gradientUnits="userSpaceOnUse">
			<stop  offset="0" style="stop-color:#FFF493"/>
			<stop  offset="1" style="stop-color:#FDD825"/>
		</radialGradient>
		<path id="XMLID_378_" class="st38" d="M391.9,234.6c-1.2,2.7-10.5,33.6-10,36.5c0.5,2.8,8.8,6.1,11.9,6.4
			c3.1,0.3,19.8,2.3,14.9-8.6c-4.9-10.9-8.9-39.3-12.3-39.4C393.9,229.4,393.1,231.9,391.9,234.6z M389.3,260.8
			c-0.3,3-0.9,5.5-1.3,5.4c-0.4,0-0.5-2.6-0.2-5.6c0.3-3,0.9-5.4,1.3-5.4C389.6,255.3,389.7,257.8,389.3,260.8z M391,246.9
			c-0.3,0-0.4-1.6-0.1-3.4c0.3-1.8,0.7-3.2,1.1-3.2c0.3,0.1,0.4,1.6,0.1,3.4C391.8,245.5,391.4,246.9,391,246.9z M398.8,251.2
			c-0.4,0.1-1-1.6-1.3-3.7c-0.3-2.1-0.2-3.8,0.2-3.9c0.4-0.1,1,1.6,1.3,3.7C399.3,249.4,399.2,251.1,398.8,251.2z"/>
		
			<radialGradient id="XMLID_40_" cx="463.6241" cy="178.5972" r="156.9132" gradientTransform="matrix(0.9986 0 0 1 0.831 0)" gradientUnits="userSpaceOnUse">
			<stop  offset="0" style="stop-color:#FFF493"/>
			<stop  offset="1" style="stop-color:#FDD825"/>
		</radialGradient>
		<path id="XMLID_383_" class="st39" d="M354.8,253.3c2.1,5.6,20.3,23.1,24.8,13.5c4.5-9.6,12.3-36.1,11.5-37.9
			c0,0,0.5-3.2-10.8,3.5C374.2,235.4,352.7,247.7,354.8,253.3z M369.2,242c1.5-1.5,2.9-2.5,3.2-2.2c0.3,0.3-0.6,1.8-2.1,3.3
			c-1.5,1.5-2.9,2.5-3.2,2.2C366.8,245,367.7,243.5,369.2,242z M371.8,252.5c-2.3,2.9-4.4,5-4.7,4.7c-0.3-0.2,1.4-2.8,3.7-5.6
			c2.3-2.9,4.4-5,4.7-4.7C375.8,247.1,374.1,249.7,371.8,252.5z M383.6,236.9c0.3,0.2-0.3,1.6-1.2,3.1c-1,1.6-1.9,2.7-2.2,2.5
			c-0.3-0.2,0.3-1.6,1.2-3.1C382.3,237.9,383.3,236.7,383.6,236.9z"/>
		
			<radialGradient id="XMLID_41_" cx="463.6242" cy="178.5972" r="156.9125" gradientTransform="matrix(0.9986 0 0 1 0.831 0)" gradientUnits="userSpaceOnUse">
			<stop  offset="0" style="stop-color:#FFF493"/>
			<stop  offset="1" style="stop-color:#FDD825"/>
		</radialGradient>
		<path id="XMLID_388_" class="st40" d="M349.1,222.8c-8.4,0-3,15.3-2.4,16.5c0.6,1.2,3,7,5.8,6.5c2.8-0.6,35.2-20.6,35.2-20.6
			C389.9,220.6,357.5,222.8,349.1,222.8z M358.4,239.4c-3.5,1-6.4,1.6-6.5,1.2c-0.1-0.4,2.7-1.5,6.2-2.6c3.5-1.1,6.4-1.6,6.5-1.2
			C364.7,237.1,361.9,238.3,358.4,239.4z M359.7,233.5c-3.5,1.1-6.4,1.6-6.5,1.2c-0.1-0.4,2.7-1.6,6.2-2.6c3.5-1.1,6.4-1.6,6.5-1.2
			C366,231.3,363.2,232.5,359.7,233.5z M374.7,230.8c-1.8,0.5-3.2,0.7-3.3,0.4c-0.1-0.3,1.2-1,3-1.5c1.7-0.5,3.2-0.7,3.3-0.4
			C377.7,229.6,376.4,230.3,374.7,230.8z"/>
		
			<radialGradient id="XMLID_42_" cx="465.6239" cy="189.9305" r="195.4701" gradientTransform="matrix(0.9986 0 0 1 0.831 0)" gradientUnits="userSpaceOnUse">
			<stop  offset="0" style="stop-color:#FFF493"/>
			<stop  offset="0.4948" style="stop-color:#FDD825"/>
			<stop  offset="0.9742" style="stop-color:#F9BF2A"/>
		</radialGradient>
		<path id="XMLID_391_" class="st41" d="M464.7,221.1h-0.2c-1.1,35-29.9,63.2-65.1,63.2s-64-28.1-65.1-63.2h-0.2h-4
			c1.1,37.3,31.8,67.3,69.3,67.3s68.1-30,69.2-67.3H464.7z"/>
		<path id="XMLID_392_" class="st28" d="M380.1,242.6c0.3,0.2,1.3-0.9,2.2-2.5c0.9-1.6,1.5-3,1.2-3.1c-0.3-0.2-1.3,1-2.2,2.5
			C380.4,241,379.8,242.4,380.1,242.6z"/>
		<path id="XMLID_393_" class="st28" d="M374.3,229.7c-1.7,0.5-3.1,1.2-3,1.5c0.1,0.3,1.6,0.1,3.3-0.4c1.7-0.5,3.1-1.2,3-1.5
			C377.6,229,376.1,229.2,374.3,229.7z"/>
		<path id="XMLID_394_" class="st28" d="M392,240.3c-0.3,0-0.8,1.4-1.1,3.2c-0.3,1.8-0.2,3.3,0.1,3.4c0.3,0.1,0.8-1.4,1.1-3.2
			C392.4,241.9,392.3,240.4,392,240.3z"/>
		<path id="XMLID_395_" class="st28" d="M416.4,226.9c-2.6-0.6-4.8-0.7-4.9-0.2c-0.1,0.5,1.9,1.4,4.5,2c2.6,0.6,4.8,0.7,4.9,0.2
			C421,228.4,419,227.5,416.4,226.9z"/>
		<path id="XMLID_396_" class="st28" d="M370.3,243.1c1.5-1.5,2.4-3,2.1-3.3c-0.3-0.3-1.7,0.7-3.2,2.2c-1.5,1.5-2.4,3-2.1,3.3
			C367.4,245.6,368.8,244.6,370.3,243.1z"/>
		<path id="XMLID_397_" class="st28" d="M397.7,243.6c-0.4,0.1-0.5,1.8-0.2,3.9c0.3,2.1,0.9,3.8,1.3,3.7c0.4-0.1,0.5-1.8,0.2-3.9
			C398.7,245.2,398.1,243.5,397.7,243.6z"/>
		<path id="XMLID_398_" class="st28" d="M389.2,255.2c-0.4-0.1-1,2.4-1.3,5.4c-0.3,3-0.3,5.5,0.2,5.6c0.4,0.1,1-2.4,1.3-5.4
			C389.7,257.8,389.6,255.3,389.2,255.2z"/>
		<path id="XMLID_399_" class="st28" d="M419.6,233.3c-0.1,0.3,2.6,1.6,6,2.8c3.5,1.2,6.4,1.9,6.5,1.6c0.1-0.3-2.6-1.6-6-2.8
			C422.7,233.7,419.8,232.9,419.6,233.3z"/>
		<path id="XMLID_400_" class="st28" d="M429,227.4c0,0.3,2.9,0.9,6.5,1.1c3.7,0.3,6.6,0.2,6.7-0.1c0-0.4-2.9-0.9-6.5-1.1
			C432,226.9,429,227,429,227.4z"/>
		<path id="XMLID_401_" class="st28" d="M407.3,251.3c-0.3,0.1,0.8,2.9,2.6,6.1c1.7,3.2,3.4,5.7,3.7,5.6c0.3-0.1-0.8-2.9-2.6-6.1
			C409.3,253.6,407.6,251.1,407.3,251.3z"/>
		<path id="XMLID_402_" class="st28" d="M416.5,249.5c-0.3,0.1,0.8,1.9,2.6,4.1s3.4,3.8,3.8,3.7c0.3-0.1-0.8-1.9-2.6-4.1
			C418.5,251.1,416.8,249.4,416.5,249.5z"/>
		<path id="XMLID_403_" class="st28" d="M409.5,240.7c-0.3,0,0.2,2.1,1.3,4.6c1.1,2.6,2.2,4.6,2.5,4.6c0.3,0-0.3-2.1-1.3-4.6
			C411,242.8,409.8,240.7,409.5,240.7z"/>
		<path id="XMLID_404_" class="st28" d="M358,238c-3.5,1.1-6.3,2.2-6.2,2.6c0.1,0.4,3-0.2,6.5-1.2c3.5-1.1,6.3-2.2,6.2-2.6
			C364.5,236.4,361.6,236.9,358,238z"/>
		<path id="XMLID_405_" class="st28" d="M359.4,232.2c-3.5,1.1-6.3,2.2-6.2,2.6c0.1,0.4,3-0.2,6.5-1.2c3.5-1.1,6.3-2.2,6.2-2.6
			C365.8,230.5,362.9,231.1,359.4,232.2z"/>
		<path id="XMLID_406_" class="st28" d="M370.9,251.6c-2.3,2.9-4,5.4-3.7,5.6c0.3,0.2,2.3-1.9,4.7-4.7c2.3-2.9,4-5.4,3.7-5.6
			C375.2,246.7,373.2,248.8,370.9,251.6z"/>
		
			<radialGradient id="XMLID_43_" cx="438.2913" cy="238.4886" r="155.2527" gradientTransform="matrix(0.9986 0 0 1 0.831 0)" gradientUnits="userSpaceOnUse">
			<stop  offset="0" style="stop-color:#FFF493"/>
			<stop  offset="1" style="stop-color:#FDD825"/>
		</radialGradient>
		<path id="XMLID_351_" class="st42" d="M399.4,284.3c35.2,0,64-28.1,65.1-63.2h-41.9c-0.1,0-0.1,0-0.1,0c0,0,0,0,0,0h-38
			c2.5-0.9-50.2,0-50.2,0C335.4,256.2,364.2,284.3,399.4,284.3z M432.2,265.2c-9,11.9-19.1,6.8-20.2,6.2c-0.8-0.5-6.8-22-10.1-34
			c-0.1-0.3-0.2-0.7-0.3-1.1c-1.1-4-1.8-6.6-1.8-6.6c-0.6-2,1.2-3.7,2.7-3.2c0.8,0.3,6.4,5.7,12.8,12c0.2,0.3,0.6,0.7,1.2,1.2
			c4.4,4.2,9,8.7,12.9,12.1C439.2,260.3,432.2,265.2,432.2,265.2z M445.5,224.3c13.1,1.8,6.6,15.4,3.2,24.4
			c-3.4,9-11.8,6.3-11.8,6.3c-1.4-0.7-6.7-5.6-12.5-11.1c0.1,0,0.2,0,0.3-0.1c0.2-0.3-1.3-1.5-3.4-2.9C414,234,407,227,407,227
			c-2.9-2.7,2.2-4.4,2.2-4.4S432.4,222.5,445.5,224.3z M408.6,268.9c4.9,10.9-11.8,8.8-14.9,8.6c-3.1-0.3-11.4-3.6-11.9-6.4
			c-0.5-2.8,8.9-33.7,10-36.5c1.2-2.7,2-5.2,4.4-5.1C399.8,229.6,403.7,258.1,408.6,268.9z M391,228.8c0.8,1.8-7,28.3-11.5,37.9
			c-4.5,9.6-22.6-7.9-24.8-13.5c-2.1-5.6,19.5-17.9,25.4-21C391.5,225.6,391,228.8,391,228.8z M346.7,239.3
			c-0.6-1.2-6-16.5,2.4-16.5c8.4,0,40.8-2.2,38.6,2.4c0,0-32.4,20-35.2,20.6C349.7,246.3,347.3,240.5,346.7,239.3z"/>
	</g>
</g>
</svg>
